G04 #@! TF.GenerationSoftware,KiCad,Pcbnew,9.0.4*
G04 #@! TF.CreationDate,2025-10-02T22:35:08+04:00*
G04 #@! TF.ProjectId,handheld1_motion4sim_FO41AFC70E184,68616e64-6865-46c6-9431-5f6d6f74696f,rev?*
G04 #@! TF.SameCoordinates,Original*
G04 #@! TF.FileFunction,Copper,L1,Top*
G04 #@! TF.FilePolarity,Positive*
%FSLAX46Y46*%
G04 Gerber Fmt 4.6, Leading zero omitted, Abs format (unit mm)*
G04 Created by KiCad (PCBNEW 9.0.4) date 2025-10-02 22:35:08*
%MOMM*%
%LPD*%
G01*
G04 APERTURE LIST*
G04 Aperture macros list*
%AMRoundRect*
0 Rectangle with rounded corners*
0 $1 Rounding radius*
0 $2 $3 $4 $5 $6 $7 $8 $9 X,Y pos of 4 corners*
0 Add a 4 corners polygon primitive as box body*
4,1,4,$2,$3,$4,$5,$6,$7,$8,$9,$2,$3,0*
0 Add four circle primitives for the rounded corners*
1,1,$1+$1,$2,$3*
1,1,$1+$1,$4,$5*
1,1,$1+$1,$6,$7*
1,1,$1+$1,$8,$9*
0 Add four rect primitives between the rounded corners*
20,1,$1+$1,$2,$3,$4,$5,0*
20,1,$1+$1,$4,$5,$6,$7,0*
20,1,$1+$1,$6,$7,$8,$9,0*
20,1,$1+$1,$8,$9,$2,$3,0*%
G04 Aperture macros list end*
G04 #@! TA.AperFunction,SMDPad,CuDef*
%ADD10R,9.000000X3.915000*%
G04 #@! TD*
G04 #@! TA.AperFunction,SMDPad,CuDef*
%ADD11R,0.770000X5.000000*%
G04 #@! TD*
G04 #@! TA.AperFunction,SMDPad,CuDef*
%ADD12RoundRect,0.135000X0.185000X-0.135000X0.185000X0.135000X-0.185000X0.135000X-0.185000X-0.135000X0*%
G04 #@! TD*
G04 #@! TA.AperFunction,SMDPad,CuDef*
%ADD13RoundRect,0.150000X-0.587500X-0.150000X0.587500X-0.150000X0.587500X0.150000X-0.587500X0.150000X0*%
G04 #@! TD*
G04 #@! TA.AperFunction,SMDPad,CuDef*
%ADD14R,1.500000X1.000000*%
G04 #@! TD*
G04 #@! TA.AperFunction,SMDPad,CuDef*
%ADD15RoundRect,0.135000X-0.135000X-0.185000X0.135000X-0.185000X0.135000X0.185000X-0.135000X0.185000X0*%
G04 #@! TD*
G04 #@! TA.AperFunction,ComponentPad*
%ADD16RoundRect,0.250000X-0.600000X-0.725000X0.600000X-0.725000X0.600000X0.725000X-0.600000X0.725000X0*%
G04 #@! TD*
G04 #@! TA.AperFunction,ComponentPad*
%ADD17O,1.700000X1.950000*%
G04 #@! TD*
G04 #@! TA.AperFunction,ViaPad*
%ADD18C,0.600000*%
G04 #@! TD*
G04 #@! TA.AperFunction,Conductor*
%ADD19C,0.300000*%
G04 #@! TD*
G04 APERTURE END LIST*
D10*
G04 #@! TO.P,J1,L*
G04 #@! TO.N,N/C*
X146975000Y-119382500D03*
D11*
G04 #@! TO.P,J1,8*
G04 #@! TO.N,VCC_5V0*
X151445000Y-103160000D03*
G04 #@! TO.P,J1,7*
G04 #@! TO.N,ONLINE*
X150175000Y-103160000D03*
G04 #@! TO.P,J1,6*
G04 #@! TO.N,LED_YELLOW*
X148905000Y-103160000D03*
G04 #@! TO.P,J1,5*
G04 #@! TO.N,LED_GREEN*
X147635000Y-103160000D03*
G04 #@! TO.P,J1,4*
G04 #@! TO.N,LED_RED*
X146365000Y-103160000D03*
G04 #@! TO.P,J1,3*
G04 #@! TO.N,GND*
X145095000Y-103160000D03*
G04 #@! TO.P,J1,2*
G04 #@! TO.N,FAULTSTOP*
X143825000Y-103160000D03*
G04 #@! TO.P,J1,1*
G04 #@! TO.N,/I2C_SDA*
X142555000Y-103160000D03*
G04 #@! TD*
D12*
G04 #@! TO.P,R6,2*
G04 #@! TO.N,Net-(Q1-G)*
X139600000Y-83580000D03*
G04 #@! TO.P,R6,1*
G04 #@! TO.N,GND*
X139600000Y-84600000D03*
G04 #@! TD*
G04 #@! TO.P,R5,1*
G04 #@! TO.N,GND*
X145000000Y-84110000D03*
G04 #@! TO.P,R5,2*
G04 #@! TO.N,Net-(Q2-G)*
X145000000Y-83090000D03*
G04 #@! TD*
G04 #@! TO.P,R4,1*
G04 #@! TO.N,GND*
X150200000Y-84110000D03*
G04 #@! TO.P,R4,2*
G04 #@! TO.N,Net-(Q3-G)*
X150200000Y-83090000D03*
G04 #@! TD*
D13*
G04 #@! TO.P,Q2,1,G*
G04 #@! TO.N,Net-(Q2-G)*
X147050000Y-84525000D03*
G04 #@! TO.P,Q2,2,S*
G04 #@! TO.N,GND*
X147050000Y-86425000D03*
G04 #@! TO.P,Q2,3,D*
G04 #@! TO.N,/G_cathode*
X148925000Y-85475000D03*
G04 #@! TD*
D14*
G04 #@! TO.P,JP1,1,A*
G04 #@! TO.N,Net-(JP1-A)*
X157200000Y-83050000D03*
G04 #@! TO.P,JP1,2,B*
G04 #@! TO.N,/Y_cathode*
X157200000Y-81750000D03*
G04 #@! TD*
D15*
G04 #@! TO.P,R3,1*
G04 #@! TO.N,LED_RED*
X141580000Y-82525000D03*
G04 #@! TO.P,R3,2*
G04 #@! TO.N,Net-(Q1-G)*
X142600000Y-82525000D03*
G04 #@! TD*
D16*
G04 #@! TO.P,J3,1,Pin_1*
G04 #@! TO.N,ONLINE*
X140750000Y-76000000D03*
D17*
G04 #@! TO.P,J3,2,Pin_2*
G04 #@! TO.N,/R_cathode*
X143250000Y-76000000D03*
G04 #@! TO.P,J3,3,Pin_3*
G04 #@! TO.N,/G_cathode*
X145750000Y-76000000D03*
G04 #@! TO.P,J3,4,Pin_4*
G04 #@! TO.N,/Y_cathode*
X148250000Y-76000000D03*
G04 #@! TO.P,J3,5,Pin_5*
G04 #@! TO.N,VCC_5V0*
X150750000Y-76000000D03*
G04 #@! TO.P,J3,6,Pin_6*
G04 #@! TO.N,GND*
X153250000Y-76000000D03*
G04 #@! TD*
D15*
G04 #@! TO.P,R1,1*
G04 #@! TO.N,LED_GREEN*
X146890000Y-82600000D03*
G04 #@! TO.P,R1,2*
G04 #@! TO.N,Net-(Q2-G)*
X147910000Y-82600000D03*
G04 #@! TD*
D13*
G04 #@! TO.P,Q3,1,G*
G04 #@! TO.N,Net-(Q3-G)*
X152050000Y-84525000D03*
G04 #@! TO.P,Q3,2,S*
G04 #@! TO.N,GND*
X152050000Y-86425000D03*
G04 #@! TO.P,Q3,3,D*
G04 #@! TO.N,Net-(JP1-A)*
X153925000Y-85475000D03*
G04 #@! TD*
G04 #@! TO.P,Q1,1,G*
G04 #@! TO.N,Net-(Q1-G)*
X141650000Y-84225000D03*
G04 #@! TO.P,Q1,2,S*
G04 #@! TO.N,GND*
X141650000Y-86125000D03*
G04 #@! TO.P,Q1,3,D*
G04 #@! TO.N,/R_cathode*
X143525000Y-85175000D03*
G04 #@! TD*
D16*
G04 #@! TO.P,J2,1,Pin_1*
G04 #@! TO.N,GND*
X143700000Y-92200000D03*
D17*
G04 #@! TO.P,J2,2,Pin_2*
G04 #@! TO.N,FAULTSTOP*
X146200000Y-92200000D03*
G04 #@! TO.P,J2,3,Pin_3*
G04 #@! TO.N,/E_NC*
X148700000Y-92200000D03*
G04 #@! TD*
D15*
G04 #@! TO.P,R2,1*
G04 #@! TO.N,LED_YELLOW*
X151890000Y-82600000D03*
G04 #@! TO.P,R2,2*
G04 #@! TO.N,Net-(Q3-G)*
X152910000Y-82600000D03*
G04 #@! TD*
D18*
G04 #@! TO.N,LED_YELLOW*
X149000000Y-98800000D03*
X150200000Y-82000000D03*
G04 #@! TO.N,LED_GREEN*
X147400000Y-98800000D03*
X146800000Y-81600000D03*
G04 #@! TO.N,GND*
X145000000Y-107600000D03*
X150500000Y-86100000D03*
X140000000Y-86000000D03*
X145300000Y-86100000D03*
G04 #@! TD*
D19*
G04 #@! TO.N,LED_YELLOW*
X149000000Y-98800000D02*
X148905000Y-98895000D01*
X148905000Y-98895000D02*
X148905000Y-103160000D01*
X151290000Y-82000000D02*
X150200000Y-82000000D01*
X151890000Y-82600000D02*
X151290000Y-82000000D01*
G04 #@! TO.N,LED_GREEN*
X147400000Y-98800000D02*
X147635000Y-99035000D01*
X147635000Y-99035000D02*
X147635000Y-103160000D01*
X146890000Y-81690000D02*
X146800000Y-81600000D01*
X146890000Y-82600000D02*
X146890000Y-81690000D01*
G04 #@! TO.N,Net-(Q2-G)*
X145000000Y-83090000D02*
X145615000Y-83090000D01*
G04 #@! TO.N,FAULTSTOP*
X146200000Y-92200000D02*
X146200000Y-95200000D01*
X146200000Y-95200000D02*
X143825000Y-97575000D01*
X143825000Y-97575000D02*
X143825000Y-103160000D01*
G04 #@! TO.N,GND*
X145095000Y-107505000D02*
X145000000Y-107600000D01*
X145095000Y-103160000D02*
X145095000Y-107505000D01*
X150500000Y-86100000D02*
X150825000Y-86425000D01*
X140000000Y-86000000D02*
X140125000Y-86125000D01*
X145300000Y-86100000D02*
X145625000Y-86425000D01*
G04 #@! TO.N,VCC_5V0*
X150750000Y-76000000D02*
X150750000Y-78150000D01*
X158200000Y-80000000D02*
X159600000Y-81400000D01*
X151445000Y-98555000D02*
X151445000Y-103160000D01*
X150750000Y-78150000D02*
X152600000Y-80000000D01*
X152600000Y-80000000D02*
X158200000Y-80000000D01*
X159600000Y-81400000D02*
X159600000Y-86200000D01*
X159600000Y-86200000D02*
X154800000Y-91000000D01*
X154800000Y-91000000D02*
X154800000Y-95200000D01*
X154800000Y-95200000D02*
X151445000Y-98555000D01*
G04 #@! TO.N,/Y_cathode*
X157200000Y-81750000D02*
X151950000Y-81750000D01*
X148250000Y-78050000D02*
X148250000Y-76000000D01*
X151950000Y-81750000D02*
X148250000Y-78050000D01*
G04 #@! TO.N,Net-(JP1-A)*
X155925000Y-85475000D02*
X157200000Y-84200000D01*
X153925000Y-85475000D02*
X155925000Y-85475000D01*
X157200000Y-84200000D02*
X157200000Y-83050000D01*
G04 #@! TO.N,GND*
X150200000Y-84110000D02*
X150200000Y-85800000D01*
X150200000Y-85800000D02*
X150500000Y-86100000D01*
X150825000Y-86425000D02*
X152050000Y-86425000D01*
G04 #@! TO.N,Net-(Q3-G)*
X152910000Y-82600000D02*
X152910000Y-83665000D01*
X152910000Y-83665000D02*
X152050000Y-84525000D01*
X150200000Y-83090000D02*
X150615000Y-83090000D01*
X150615000Y-83090000D02*
X152050000Y-84525000D01*
G04 #@! TO.N,Net-(Q2-G)*
X145615000Y-83090000D02*
X147050000Y-84525000D01*
X147910000Y-82600000D02*
X147910000Y-83665000D01*
X147910000Y-83665000D02*
X147050000Y-84525000D01*
G04 #@! TO.N,/G_cathode*
X145750000Y-76000000D02*
X145750000Y-77550000D01*
X145750000Y-77550000D02*
X148925000Y-80725000D01*
X148925000Y-80725000D02*
X148925000Y-85475000D01*
G04 #@! TO.N,/R_cathode*
X143250000Y-76000000D02*
X143250000Y-80450000D01*
X143250000Y-80450000D02*
X143800000Y-81000000D01*
X143800000Y-81000000D02*
X143800000Y-84600000D01*
X143800000Y-84600000D02*
X143525000Y-84875001D01*
X143525000Y-84875001D02*
X143525000Y-85175000D01*
G04 #@! TO.N,ONLINE*
X148200000Y-111800000D02*
X150200000Y-109800000D01*
X138000000Y-111800000D02*
X148200000Y-111800000D01*
X137200000Y-76000000D02*
X134600000Y-78600000D01*
X134600000Y-108400000D02*
X138000000Y-111800000D01*
X140750000Y-76000000D02*
X137200000Y-76000000D01*
X150175000Y-109775000D02*
X150175000Y-103160000D01*
X134600000Y-78600000D02*
X134600000Y-108400000D01*
X150200000Y-109800000D02*
X150175000Y-109775000D01*
G04 #@! TO.N,LED_RED*
X141580000Y-82525000D02*
X139475000Y-82525000D01*
X139475000Y-82525000D02*
X138600000Y-83400000D01*
X146400000Y-108000000D02*
X146365000Y-107965000D01*
X138600000Y-83400000D02*
X138600000Y-107600000D01*
X138600000Y-107600000D02*
X140200000Y-109200000D01*
X140200000Y-109200000D02*
X145200000Y-109200000D01*
X145200000Y-109200000D02*
X146400000Y-108000000D01*
X146365000Y-107965000D02*
X146365000Y-103160000D01*
G04 #@! TO.N,Net-(Q1-G)*
X142600000Y-82525000D02*
X142600000Y-83275000D01*
X142600000Y-83275000D02*
X141650000Y-84225000D01*
X139600000Y-83580000D02*
X141005000Y-83580000D01*
X141005000Y-83580000D02*
X141650000Y-84225000D01*
G04 #@! TO.N,GND*
X145000000Y-84110000D02*
X145000000Y-85800000D01*
X145000000Y-85800000D02*
X145300000Y-86100000D01*
X145625000Y-86425000D02*
X147050000Y-86425000D01*
X139600000Y-84600000D02*
X139600000Y-85600000D01*
X140125000Y-86125000D02*
X141650000Y-86125000D01*
X139600000Y-85600000D02*
X140000000Y-86000000D01*
G04 #@! TD*
M02*
