%TF.GenerationSoftware,KiCad,Pcbnew,9.0.4*%
%TF.CreationDate,2025-10-02T22:35:08+04:00*%
%TF.ProjectId,handheld1_motion4sim_FO41AFC70E184,68616e64-6865-46c6-9431-5f6d6f74696f,rev?*%
%TF.SameCoordinates,Original*%
%TF.FileFunction,Drillmap*%
%TF.FilePolarity,Positive*%
%FSLAX45Y45*%
G04 Gerber Fmt 4.5, Leading zero omitted, Abs format (unit mm)*
G04 Created by KiCad (PCBNEW 9.0.4) date 2025-10-02 22:35:08*
%MOMM*%
%LPD*%
G01*
G04 APERTURE LIST*
%ADD10C,0.200000*%
%ADD11C,0.100000*%
G04 APERTURE END LIST*
D10*
X13140000Y-6580000D02*
X16140000Y-6580000D01*
X16140000Y-12580000D01*
X13140000Y-12580000D01*
X13140000Y-6580000D01*
D11*
X13985000Y-8585000D02*
X14015000Y-8615000D01*
X14015000Y-8585000D02*
X13985000Y-8615000D01*
X14485000Y-10745000D02*
X14515000Y-10775000D01*
X14515000Y-10745000D02*
X14485000Y-10775000D01*
X14515000Y-8595000D02*
X14545000Y-8625000D01*
X14545000Y-8595000D02*
X14515000Y-8625000D01*
X14665000Y-8145000D02*
X14695000Y-8175000D01*
X14695000Y-8145000D02*
X14665000Y-8175000D01*
X14725000Y-9865000D02*
X14755000Y-9895000D01*
X14755000Y-9865000D02*
X14725000Y-9895000D01*
X14885000Y-9865000D02*
X14915000Y-9895000D01*
X14915000Y-9865000D02*
X14885000Y-9895000D01*
X15005000Y-8185000D02*
X15035000Y-8215000D01*
X15035000Y-8185000D02*
X15005000Y-8215000D01*
X15035000Y-8595000D02*
X15065000Y-8625000D01*
X15065000Y-8595000D02*
X15035000Y-8625000D01*
X14122500Y-7600000D02*
G75*
G02*
X14027500Y-7600000I-47500J0D01*
G01*
X14027500Y-7600000D02*
G75*
G02*
X14122500Y-7600000I47500J0D01*
G01*
X14372500Y-7600000D02*
G75*
G02*
X14277500Y-7600000I-47500J0D01*
G01*
X14277500Y-7600000D02*
G75*
G02*
X14372500Y-7600000I47500J0D01*
G01*
X14417500Y-9220000D02*
G75*
G02*
X14322500Y-9220000I-47500J0D01*
G01*
X14322500Y-9220000D02*
G75*
G02*
X14417500Y-9220000I47500J0D01*
G01*
X14622500Y-7600000D02*
G75*
G02*
X14527500Y-7600000I-47500J0D01*
G01*
X14527500Y-7600000D02*
G75*
G02*
X14622500Y-7600000I47500J0D01*
G01*
X14667500Y-9220000D02*
G75*
G02*
X14572500Y-9220000I-47500J0D01*
G01*
X14572500Y-9220000D02*
G75*
G02*
X14667500Y-9220000I47500J0D01*
G01*
X14872500Y-7600000D02*
G75*
G02*
X14777500Y-7600000I-47500J0D01*
G01*
X14777500Y-7600000D02*
G75*
G02*
X14872500Y-7600000I47500J0D01*
G01*
X14917500Y-9220000D02*
G75*
G02*
X14822500Y-9220000I-47500J0D01*
G01*
X14822500Y-9220000D02*
G75*
G02*
X14917500Y-9220000I47500J0D01*
G01*
X15122500Y-7600000D02*
G75*
G02*
X15027500Y-7600000I-47500J0D01*
G01*
X15027500Y-7600000D02*
G75*
G02*
X15122500Y-7600000I47500J0D01*
G01*
X15372500Y-7600000D02*
G75*
G02*
X15277500Y-7600000I-47500J0D01*
G01*
X15277500Y-7600000D02*
G75*
G02*
X15372500Y-7600000I47500J0D01*
G01*
D10*
X13390777Y-12901484D02*
X13390777Y-12701484D01*
X13390777Y-12701484D02*
X13438396Y-12701484D01*
X13438396Y-12701484D02*
X13466967Y-12711008D01*
X13466967Y-12711008D02*
X13486015Y-12730055D01*
X13486015Y-12730055D02*
X13495539Y-12749103D01*
X13495539Y-12749103D02*
X13505062Y-12787198D01*
X13505062Y-12787198D02*
X13505062Y-12815769D01*
X13505062Y-12815769D02*
X13495539Y-12853865D01*
X13495539Y-12853865D02*
X13486015Y-12872912D01*
X13486015Y-12872912D02*
X13466967Y-12891960D01*
X13466967Y-12891960D02*
X13438396Y-12901484D01*
X13438396Y-12901484D02*
X13390777Y-12901484D01*
X13590777Y-12901484D02*
X13590777Y-12768150D01*
X13590777Y-12806246D02*
X13600301Y-12787198D01*
X13600301Y-12787198D02*
X13609824Y-12777674D01*
X13609824Y-12777674D02*
X13628872Y-12768150D01*
X13628872Y-12768150D02*
X13647920Y-12768150D01*
X13714586Y-12901484D02*
X13714586Y-12768150D01*
X13714586Y-12701484D02*
X13705062Y-12711008D01*
X13705062Y-12711008D02*
X13714586Y-12720531D01*
X13714586Y-12720531D02*
X13724110Y-12711008D01*
X13724110Y-12711008D02*
X13714586Y-12701484D01*
X13714586Y-12701484D02*
X13714586Y-12720531D01*
X13838396Y-12901484D02*
X13819348Y-12891960D01*
X13819348Y-12891960D02*
X13809824Y-12872912D01*
X13809824Y-12872912D02*
X13809824Y-12701484D01*
X13943158Y-12901484D02*
X13924110Y-12891960D01*
X13924110Y-12891960D02*
X13914586Y-12872912D01*
X13914586Y-12872912D02*
X13914586Y-12701484D01*
X14171729Y-12901484D02*
X14171729Y-12701484D01*
X14171729Y-12701484D02*
X14238396Y-12844341D01*
X14238396Y-12844341D02*
X14305062Y-12701484D01*
X14305062Y-12701484D02*
X14305062Y-12901484D01*
X14486015Y-12901484D02*
X14486015Y-12796722D01*
X14486015Y-12796722D02*
X14476491Y-12777674D01*
X14476491Y-12777674D02*
X14457443Y-12768150D01*
X14457443Y-12768150D02*
X14419348Y-12768150D01*
X14419348Y-12768150D02*
X14400301Y-12777674D01*
X14486015Y-12891960D02*
X14466967Y-12901484D01*
X14466967Y-12901484D02*
X14419348Y-12901484D01*
X14419348Y-12901484D02*
X14400301Y-12891960D01*
X14400301Y-12891960D02*
X14390777Y-12872912D01*
X14390777Y-12872912D02*
X14390777Y-12853865D01*
X14390777Y-12853865D02*
X14400301Y-12834817D01*
X14400301Y-12834817D02*
X14419348Y-12825293D01*
X14419348Y-12825293D02*
X14466967Y-12825293D01*
X14466967Y-12825293D02*
X14486015Y-12815769D01*
X14581253Y-12768150D02*
X14581253Y-12968150D01*
X14581253Y-12777674D02*
X14600301Y-12768150D01*
X14600301Y-12768150D02*
X14638396Y-12768150D01*
X14638396Y-12768150D02*
X14657443Y-12777674D01*
X14657443Y-12777674D02*
X14666967Y-12787198D01*
X14666967Y-12787198D02*
X14676491Y-12806246D01*
X14676491Y-12806246D02*
X14676491Y-12863388D01*
X14676491Y-12863388D02*
X14666967Y-12882436D01*
X14666967Y-12882436D02*
X14657443Y-12891960D01*
X14657443Y-12891960D02*
X14638396Y-12901484D01*
X14638396Y-12901484D02*
X14600301Y-12901484D01*
X14600301Y-12901484D02*
X14581253Y-12891960D01*
X14762205Y-12882436D02*
X14771729Y-12891960D01*
X14771729Y-12891960D02*
X14762205Y-12901484D01*
X14762205Y-12901484D02*
X14752682Y-12891960D01*
X14752682Y-12891960D02*
X14762205Y-12882436D01*
X14762205Y-12882436D02*
X14762205Y-12901484D01*
X14762205Y-12777674D02*
X14771729Y-12787198D01*
X14771729Y-12787198D02*
X14762205Y-12796722D01*
X14762205Y-12796722D02*
X14752682Y-12787198D01*
X14752682Y-12787198D02*
X14762205Y-12777674D01*
X14762205Y-12777674D02*
X14762205Y-12796722D01*
D11*
X13100000Y-13215000D02*
X13130000Y-13245000D01*
X13130000Y-13215000D02*
X13100000Y-13245000D01*
D10*
X13428872Y-13121484D02*
X13447920Y-13121484D01*
X13447920Y-13121484D02*
X13466967Y-13131008D01*
X13466967Y-13131008D02*
X13476491Y-13140531D01*
X13476491Y-13140531D02*
X13486015Y-13159579D01*
X13486015Y-13159579D02*
X13495539Y-13197674D01*
X13495539Y-13197674D02*
X13495539Y-13245293D01*
X13495539Y-13245293D02*
X13486015Y-13283388D01*
X13486015Y-13283388D02*
X13476491Y-13302436D01*
X13476491Y-13302436D02*
X13466967Y-13311960D01*
X13466967Y-13311960D02*
X13447920Y-13321484D01*
X13447920Y-13321484D02*
X13428872Y-13321484D01*
X13428872Y-13321484D02*
X13409824Y-13311960D01*
X13409824Y-13311960D02*
X13400301Y-13302436D01*
X13400301Y-13302436D02*
X13390777Y-13283388D01*
X13390777Y-13283388D02*
X13381253Y-13245293D01*
X13381253Y-13245293D02*
X13381253Y-13197674D01*
X13381253Y-13197674D02*
X13390777Y-13159579D01*
X13390777Y-13159579D02*
X13400301Y-13140531D01*
X13400301Y-13140531D02*
X13409824Y-13131008D01*
X13409824Y-13131008D02*
X13428872Y-13121484D01*
X13581253Y-13302436D02*
X13590777Y-13311960D01*
X13590777Y-13311960D02*
X13581253Y-13321484D01*
X13581253Y-13321484D02*
X13571729Y-13311960D01*
X13571729Y-13311960D02*
X13581253Y-13302436D01*
X13581253Y-13302436D02*
X13581253Y-13321484D01*
X13657443Y-13121484D02*
X13781253Y-13121484D01*
X13781253Y-13121484D02*
X13714586Y-13197674D01*
X13714586Y-13197674D02*
X13743158Y-13197674D01*
X13743158Y-13197674D02*
X13762205Y-13207198D01*
X13762205Y-13207198D02*
X13771729Y-13216722D01*
X13771729Y-13216722D02*
X13781253Y-13235769D01*
X13781253Y-13235769D02*
X13781253Y-13283388D01*
X13781253Y-13283388D02*
X13771729Y-13302436D01*
X13771729Y-13302436D02*
X13762205Y-13311960D01*
X13762205Y-13311960D02*
X13743158Y-13321484D01*
X13743158Y-13321484D02*
X13686015Y-13321484D01*
X13686015Y-13321484D02*
X13666967Y-13311960D01*
X13666967Y-13311960D02*
X13657443Y-13302436D01*
X13905062Y-13121484D02*
X13924110Y-13121484D01*
X13924110Y-13121484D02*
X13943158Y-13131008D01*
X13943158Y-13131008D02*
X13952682Y-13140531D01*
X13952682Y-13140531D02*
X13962205Y-13159579D01*
X13962205Y-13159579D02*
X13971729Y-13197674D01*
X13971729Y-13197674D02*
X13971729Y-13245293D01*
X13971729Y-13245293D02*
X13962205Y-13283388D01*
X13962205Y-13283388D02*
X13952682Y-13302436D01*
X13952682Y-13302436D02*
X13943158Y-13311960D01*
X13943158Y-13311960D02*
X13924110Y-13321484D01*
X13924110Y-13321484D02*
X13905062Y-13321484D01*
X13905062Y-13321484D02*
X13886015Y-13311960D01*
X13886015Y-13311960D02*
X13876491Y-13302436D01*
X13876491Y-13302436D02*
X13866967Y-13283388D01*
X13866967Y-13283388D02*
X13857443Y-13245293D01*
X13857443Y-13245293D02*
X13857443Y-13197674D01*
X13857443Y-13197674D02*
X13866967Y-13159579D01*
X13866967Y-13159579D02*
X13876491Y-13140531D01*
X13876491Y-13140531D02*
X13886015Y-13131008D01*
X13886015Y-13131008D02*
X13905062Y-13121484D01*
X14095539Y-13121484D02*
X14114586Y-13121484D01*
X14114586Y-13121484D02*
X14133634Y-13131008D01*
X14133634Y-13131008D02*
X14143158Y-13140531D01*
X14143158Y-13140531D02*
X14152682Y-13159579D01*
X14152682Y-13159579D02*
X14162205Y-13197674D01*
X14162205Y-13197674D02*
X14162205Y-13245293D01*
X14162205Y-13245293D02*
X14152682Y-13283388D01*
X14152682Y-13283388D02*
X14143158Y-13302436D01*
X14143158Y-13302436D02*
X14133634Y-13311960D01*
X14133634Y-13311960D02*
X14114586Y-13321484D01*
X14114586Y-13321484D02*
X14095539Y-13321484D01*
X14095539Y-13321484D02*
X14076491Y-13311960D01*
X14076491Y-13311960D02*
X14066967Y-13302436D01*
X14066967Y-13302436D02*
X14057443Y-13283388D01*
X14057443Y-13283388D02*
X14047920Y-13245293D01*
X14047920Y-13245293D02*
X14047920Y-13197674D01*
X14047920Y-13197674D02*
X14057443Y-13159579D01*
X14057443Y-13159579D02*
X14066967Y-13140531D01*
X14066967Y-13140531D02*
X14076491Y-13131008D01*
X14076491Y-13131008D02*
X14095539Y-13121484D01*
X14247920Y-13321484D02*
X14247920Y-13188150D01*
X14247920Y-13207198D02*
X14257443Y-13197674D01*
X14257443Y-13197674D02*
X14276491Y-13188150D01*
X14276491Y-13188150D02*
X14305063Y-13188150D01*
X14305063Y-13188150D02*
X14324110Y-13197674D01*
X14324110Y-13197674D02*
X14333634Y-13216722D01*
X14333634Y-13216722D02*
X14333634Y-13321484D01*
X14333634Y-13216722D02*
X14343158Y-13197674D01*
X14343158Y-13197674D02*
X14362205Y-13188150D01*
X14362205Y-13188150D02*
X14390777Y-13188150D01*
X14390777Y-13188150D02*
X14409824Y-13197674D01*
X14409824Y-13197674D02*
X14419348Y-13216722D01*
X14419348Y-13216722D02*
X14419348Y-13321484D01*
X14514586Y-13321484D02*
X14514586Y-13188150D01*
X14514586Y-13207198D02*
X14524110Y-13197674D01*
X14524110Y-13197674D02*
X14543158Y-13188150D01*
X14543158Y-13188150D02*
X14571729Y-13188150D01*
X14571729Y-13188150D02*
X14590777Y-13197674D01*
X14590777Y-13197674D02*
X14600301Y-13216722D01*
X14600301Y-13216722D02*
X14600301Y-13321484D01*
X14600301Y-13216722D02*
X14609824Y-13197674D01*
X14609824Y-13197674D02*
X14628872Y-13188150D01*
X14628872Y-13188150D02*
X14657443Y-13188150D01*
X14657443Y-13188150D02*
X14676491Y-13197674D01*
X14676491Y-13197674D02*
X14686015Y-13216722D01*
X14686015Y-13216722D02*
X14686015Y-13321484D01*
X15076491Y-13111960D02*
X14905063Y-13369103D01*
X15333634Y-13121484D02*
X15352682Y-13121484D01*
X15352682Y-13121484D02*
X15371729Y-13131008D01*
X15371729Y-13131008D02*
X15381253Y-13140531D01*
X15381253Y-13140531D02*
X15390777Y-13159579D01*
X15390777Y-13159579D02*
X15400301Y-13197674D01*
X15400301Y-13197674D02*
X15400301Y-13245293D01*
X15400301Y-13245293D02*
X15390777Y-13283388D01*
X15390777Y-13283388D02*
X15381253Y-13302436D01*
X15381253Y-13302436D02*
X15371729Y-13311960D01*
X15371729Y-13311960D02*
X15352682Y-13321484D01*
X15352682Y-13321484D02*
X15333634Y-13321484D01*
X15333634Y-13321484D02*
X15314586Y-13311960D01*
X15314586Y-13311960D02*
X15305063Y-13302436D01*
X15305063Y-13302436D02*
X15295539Y-13283388D01*
X15295539Y-13283388D02*
X15286015Y-13245293D01*
X15286015Y-13245293D02*
X15286015Y-13197674D01*
X15286015Y-13197674D02*
X15295539Y-13159579D01*
X15295539Y-13159579D02*
X15305063Y-13140531D01*
X15305063Y-13140531D02*
X15314586Y-13131008D01*
X15314586Y-13131008D02*
X15333634Y-13121484D01*
X15486015Y-13302436D02*
X15495539Y-13311960D01*
X15495539Y-13311960D02*
X15486015Y-13321484D01*
X15486015Y-13321484D02*
X15476491Y-13311960D01*
X15476491Y-13311960D02*
X15486015Y-13302436D01*
X15486015Y-13302436D02*
X15486015Y-13321484D01*
X15619348Y-13121484D02*
X15638396Y-13121484D01*
X15638396Y-13121484D02*
X15657444Y-13131008D01*
X15657444Y-13131008D02*
X15666967Y-13140531D01*
X15666967Y-13140531D02*
X15676491Y-13159579D01*
X15676491Y-13159579D02*
X15686015Y-13197674D01*
X15686015Y-13197674D02*
X15686015Y-13245293D01*
X15686015Y-13245293D02*
X15676491Y-13283388D01*
X15676491Y-13283388D02*
X15666967Y-13302436D01*
X15666967Y-13302436D02*
X15657444Y-13311960D01*
X15657444Y-13311960D02*
X15638396Y-13321484D01*
X15638396Y-13321484D02*
X15619348Y-13321484D01*
X15619348Y-13321484D02*
X15600301Y-13311960D01*
X15600301Y-13311960D02*
X15590777Y-13302436D01*
X15590777Y-13302436D02*
X15581253Y-13283388D01*
X15581253Y-13283388D02*
X15571729Y-13245293D01*
X15571729Y-13245293D02*
X15571729Y-13197674D01*
X15571729Y-13197674D02*
X15581253Y-13159579D01*
X15581253Y-13159579D02*
X15590777Y-13140531D01*
X15590777Y-13140531D02*
X15600301Y-13131008D01*
X15600301Y-13131008D02*
X15619348Y-13121484D01*
X15876491Y-13321484D02*
X15762206Y-13321484D01*
X15819348Y-13321484D02*
X15819348Y-13121484D01*
X15819348Y-13121484D02*
X15800301Y-13150055D01*
X15800301Y-13150055D02*
X15781253Y-13169103D01*
X15781253Y-13169103D02*
X15762206Y-13178627D01*
X16066967Y-13321484D02*
X15952682Y-13321484D01*
X16009825Y-13321484D02*
X16009825Y-13121484D01*
X16009825Y-13121484D02*
X15990777Y-13150055D01*
X15990777Y-13150055D02*
X15971729Y-13169103D01*
X15971729Y-13169103D02*
X15952682Y-13178627D01*
X16181253Y-13207198D02*
X16162206Y-13197674D01*
X16162206Y-13197674D02*
X16152682Y-13188150D01*
X16152682Y-13188150D02*
X16143158Y-13169103D01*
X16143158Y-13169103D02*
X16143158Y-13159579D01*
X16143158Y-13159579D02*
X16152682Y-13140531D01*
X16152682Y-13140531D02*
X16162206Y-13131008D01*
X16162206Y-13131008D02*
X16181253Y-13121484D01*
X16181253Y-13121484D02*
X16219348Y-13121484D01*
X16219348Y-13121484D02*
X16238396Y-13131008D01*
X16238396Y-13131008D02*
X16247920Y-13140531D01*
X16247920Y-13140531D02*
X16257444Y-13159579D01*
X16257444Y-13159579D02*
X16257444Y-13169103D01*
X16257444Y-13169103D02*
X16247920Y-13188150D01*
X16247920Y-13188150D02*
X16238396Y-13197674D01*
X16238396Y-13197674D02*
X16219348Y-13207198D01*
X16219348Y-13207198D02*
X16181253Y-13207198D01*
X16181253Y-13207198D02*
X16162206Y-13216722D01*
X16162206Y-13216722D02*
X16152682Y-13226246D01*
X16152682Y-13226246D02*
X16143158Y-13245293D01*
X16143158Y-13245293D02*
X16143158Y-13283388D01*
X16143158Y-13283388D02*
X16152682Y-13302436D01*
X16152682Y-13302436D02*
X16162206Y-13311960D01*
X16162206Y-13311960D02*
X16181253Y-13321484D01*
X16181253Y-13321484D02*
X16219348Y-13321484D01*
X16219348Y-13321484D02*
X16238396Y-13311960D01*
X16238396Y-13311960D02*
X16247920Y-13302436D01*
X16247920Y-13302436D02*
X16257444Y-13283388D01*
X16257444Y-13283388D02*
X16257444Y-13245293D01*
X16257444Y-13245293D02*
X16247920Y-13226246D01*
X16247920Y-13226246D02*
X16238396Y-13216722D01*
X16238396Y-13216722D02*
X16219348Y-13207198D01*
X16333634Y-13121484D02*
X16333634Y-13159579D01*
X16409825Y-13121484D02*
X16409825Y-13159579D01*
X16705063Y-13397674D02*
X16695539Y-13388150D01*
X16695539Y-13388150D02*
X16676491Y-13359579D01*
X16676491Y-13359579D02*
X16666968Y-13340531D01*
X16666968Y-13340531D02*
X16657444Y-13311960D01*
X16657444Y-13311960D02*
X16647920Y-13264341D01*
X16647920Y-13264341D02*
X16647920Y-13226246D01*
X16647920Y-13226246D02*
X16657444Y-13178627D01*
X16657444Y-13178627D02*
X16666968Y-13150055D01*
X16666968Y-13150055D02*
X16676491Y-13131008D01*
X16676491Y-13131008D02*
X16695539Y-13102436D01*
X16695539Y-13102436D02*
X16705063Y-13092912D01*
X16809825Y-13207198D02*
X16790777Y-13197674D01*
X16790777Y-13197674D02*
X16781253Y-13188150D01*
X16781253Y-13188150D02*
X16771729Y-13169103D01*
X16771729Y-13169103D02*
X16771729Y-13159579D01*
X16771729Y-13159579D02*
X16781253Y-13140531D01*
X16781253Y-13140531D02*
X16790777Y-13131008D01*
X16790777Y-13131008D02*
X16809825Y-13121484D01*
X16809825Y-13121484D02*
X16847920Y-13121484D01*
X16847920Y-13121484D02*
X16866968Y-13131008D01*
X16866968Y-13131008D02*
X16876491Y-13140531D01*
X16876491Y-13140531D02*
X16886015Y-13159579D01*
X16886015Y-13159579D02*
X16886015Y-13169103D01*
X16886015Y-13169103D02*
X16876491Y-13188150D01*
X16876491Y-13188150D02*
X16866968Y-13197674D01*
X16866968Y-13197674D02*
X16847920Y-13207198D01*
X16847920Y-13207198D02*
X16809825Y-13207198D01*
X16809825Y-13207198D02*
X16790777Y-13216722D01*
X16790777Y-13216722D02*
X16781253Y-13226246D01*
X16781253Y-13226246D02*
X16771729Y-13245293D01*
X16771729Y-13245293D02*
X16771729Y-13283388D01*
X16771729Y-13283388D02*
X16781253Y-13302436D01*
X16781253Y-13302436D02*
X16790777Y-13311960D01*
X16790777Y-13311960D02*
X16809825Y-13321484D01*
X16809825Y-13321484D02*
X16847920Y-13321484D01*
X16847920Y-13321484D02*
X16866968Y-13311960D01*
X16866968Y-13311960D02*
X16876491Y-13302436D01*
X16876491Y-13302436D02*
X16886015Y-13283388D01*
X16886015Y-13283388D02*
X16886015Y-13245293D01*
X16886015Y-13245293D02*
X16876491Y-13226246D01*
X16876491Y-13226246D02*
X16866968Y-13216722D01*
X16866968Y-13216722D02*
X16847920Y-13207198D01*
X17124111Y-13321484D02*
X17124111Y-13121484D01*
X17209825Y-13321484D02*
X17209825Y-13216722D01*
X17209825Y-13216722D02*
X17200301Y-13197674D01*
X17200301Y-13197674D02*
X17181253Y-13188150D01*
X17181253Y-13188150D02*
X17152682Y-13188150D01*
X17152682Y-13188150D02*
X17133634Y-13197674D01*
X17133634Y-13197674D02*
X17124111Y-13207198D01*
X17333634Y-13321484D02*
X17314587Y-13311960D01*
X17314587Y-13311960D02*
X17305063Y-13302436D01*
X17305063Y-13302436D02*
X17295539Y-13283388D01*
X17295539Y-13283388D02*
X17295539Y-13226246D01*
X17295539Y-13226246D02*
X17305063Y-13207198D01*
X17305063Y-13207198D02*
X17314587Y-13197674D01*
X17314587Y-13197674D02*
X17333634Y-13188150D01*
X17333634Y-13188150D02*
X17362206Y-13188150D01*
X17362206Y-13188150D02*
X17381253Y-13197674D01*
X17381253Y-13197674D02*
X17390777Y-13207198D01*
X17390777Y-13207198D02*
X17400301Y-13226246D01*
X17400301Y-13226246D02*
X17400301Y-13283388D01*
X17400301Y-13283388D02*
X17390777Y-13302436D01*
X17390777Y-13302436D02*
X17381253Y-13311960D01*
X17381253Y-13311960D02*
X17362206Y-13321484D01*
X17362206Y-13321484D02*
X17333634Y-13321484D01*
X17514587Y-13321484D02*
X17495539Y-13311960D01*
X17495539Y-13311960D02*
X17486015Y-13292912D01*
X17486015Y-13292912D02*
X17486015Y-13121484D01*
X17666968Y-13311960D02*
X17647920Y-13321484D01*
X17647920Y-13321484D02*
X17609825Y-13321484D01*
X17609825Y-13321484D02*
X17590777Y-13311960D01*
X17590777Y-13311960D02*
X17581253Y-13292912D01*
X17581253Y-13292912D02*
X17581253Y-13216722D01*
X17581253Y-13216722D02*
X17590777Y-13197674D01*
X17590777Y-13197674D02*
X17609825Y-13188150D01*
X17609825Y-13188150D02*
X17647920Y-13188150D01*
X17647920Y-13188150D02*
X17666968Y-13197674D01*
X17666968Y-13197674D02*
X17676492Y-13216722D01*
X17676492Y-13216722D02*
X17676492Y-13235769D01*
X17676492Y-13235769D02*
X17581253Y-13254817D01*
X17752682Y-13311960D02*
X17771730Y-13321484D01*
X17771730Y-13321484D02*
X17809825Y-13321484D01*
X17809825Y-13321484D02*
X17828873Y-13311960D01*
X17828873Y-13311960D02*
X17838396Y-13292912D01*
X17838396Y-13292912D02*
X17838396Y-13283388D01*
X17838396Y-13283388D02*
X17828873Y-13264341D01*
X17828873Y-13264341D02*
X17809825Y-13254817D01*
X17809825Y-13254817D02*
X17781253Y-13254817D01*
X17781253Y-13254817D02*
X17762206Y-13245293D01*
X17762206Y-13245293D02*
X17752682Y-13226246D01*
X17752682Y-13226246D02*
X17752682Y-13216722D01*
X17752682Y-13216722D02*
X17762206Y-13197674D01*
X17762206Y-13197674D02*
X17781253Y-13188150D01*
X17781253Y-13188150D02*
X17809825Y-13188150D01*
X17809825Y-13188150D02*
X17828873Y-13197674D01*
X17905063Y-13397674D02*
X17914587Y-13388150D01*
X17914587Y-13388150D02*
X17933634Y-13359579D01*
X17933634Y-13359579D02*
X17943158Y-13340531D01*
X17943158Y-13340531D02*
X17952682Y-13311960D01*
X17952682Y-13311960D02*
X17962206Y-13264341D01*
X17962206Y-13264341D02*
X17962206Y-13226246D01*
X17962206Y-13226246D02*
X17952682Y-13178627D01*
X17952682Y-13178627D02*
X17943158Y-13150055D01*
X17943158Y-13150055D02*
X17933634Y-13131008D01*
X17933634Y-13131008D02*
X17914587Y-13102436D01*
X17914587Y-13102436D02*
X17905063Y-13092912D01*
D11*
X13130000Y-13494000D02*
G75*
G02*
X13035000Y-13494000I-47500J0D01*
G01*
X13035000Y-13494000D02*
G75*
G02*
X13130000Y-13494000I47500J0D01*
G01*
D10*
X13428872Y-13385484D02*
X13447920Y-13385484D01*
X13447920Y-13385484D02*
X13466967Y-13395008D01*
X13466967Y-13395008D02*
X13476491Y-13404531D01*
X13476491Y-13404531D02*
X13486015Y-13423579D01*
X13486015Y-13423579D02*
X13495539Y-13461674D01*
X13495539Y-13461674D02*
X13495539Y-13509293D01*
X13495539Y-13509293D02*
X13486015Y-13547388D01*
X13486015Y-13547388D02*
X13476491Y-13566436D01*
X13476491Y-13566436D02*
X13466967Y-13575960D01*
X13466967Y-13575960D02*
X13447920Y-13585484D01*
X13447920Y-13585484D02*
X13428872Y-13585484D01*
X13428872Y-13585484D02*
X13409824Y-13575960D01*
X13409824Y-13575960D02*
X13400301Y-13566436D01*
X13400301Y-13566436D02*
X13390777Y-13547388D01*
X13390777Y-13547388D02*
X13381253Y-13509293D01*
X13381253Y-13509293D02*
X13381253Y-13461674D01*
X13381253Y-13461674D02*
X13390777Y-13423579D01*
X13390777Y-13423579D02*
X13400301Y-13404531D01*
X13400301Y-13404531D02*
X13409824Y-13395008D01*
X13409824Y-13395008D02*
X13428872Y-13385484D01*
X13581253Y-13566436D02*
X13590777Y-13575960D01*
X13590777Y-13575960D02*
X13581253Y-13585484D01*
X13581253Y-13585484D02*
X13571729Y-13575960D01*
X13571729Y-13575960D02*
X13581253Y-13566436D01*
X13581253Y-13566436D02*
X13581253Y-13585484D01*
X13686015Y-13585484D02*
X13724110Y-13585484D01*
X13724110Y-13585484D02*
X13743158Y-13575960D01*
X13743158Y-13575960D02*
X13752682Y-13566436D01*
X13752682Y-13566436D02*
X13771729Y-13537865D01*
X13771729Y-13537865D02*
X13781253Y-13499769D01*
X13781253Y-13499769D02*
X13781253Y-13423579D01*
X13781253Y-13423579D02*
X13771729Y-13404531D01*
X13771729Y-13404531D02*
X13762205Y-13395008D01*
X13762205Y-13395008D02*
X13743158Y-13385484D01*
X13743158Y-13385484D02*
X13705062Y-13385484D01*
X13705062Y-13385484D02*
X13686015Y-13395008D01*
X13686015Y-13395008D02*
X13676491Y-13404531D01*
X13676491Y-13404531D02*
X13666967Y-13423579D01*
X13666967Y-13423579D02*
X13666967Y-13471198D01*
X13666967Y-13471198D02*
X13676491Y-13490246D01*
X13676491Y-13490246D02*
X13686015Y-13499769D01*
X13686015Y-13499769D02*
X13705062Y-13509293D01*
X13705062Y-13509293D02*
X13743158Y-13509293D01*
X13743158Y-13509293D02*
X13762205Y-13499769D01*
X13762205Y-13499769D02*
X13771729Y-13490246D01*
X13771729Y-13490246D02*
X13781253Y-13471198D01*
X13962205Y-13385484D02*
X13866967Y-13385484D01*
X13866967Y-13385484D02*
X13857443Y-13480722D01*
X13857443Y-13480722D02*
X13866967Y-13471198D01*
X13866967Y-13471198D02*
X13886015Y-13461674D01*
X13886015Y-13461674D02*
X13933634Y-13461674D01*
X13933634Y-13461674D02*
X13952682Y-13471198D01*
X13952682Y-13471198D02*
X13962205Y-13480722D01*
X13962205Y-13480722D02*
X13971729Y-13499769D01*
X13971729Y-13499769D02*
X13971729Y-13547388D01*
X13971729Y-13547388D02*
X13962205Y-13566436D01*
X13962205Y-13566436D02*
X13952682Y-13575960D01*
X13952682Y-13575960D02*
X13933634Y-13585484D01*
X13933634Y-13585484D02*
X13886015Y-13585484D01*
X13886015Y-13585484D02*
X13866967Y-13575960D01*
X13866967Y-13575960D02*
X13857443Y-13566436D01*
X14095539Y-13385484D02*
X14114586Y-13385484D01*
X14114586Y-13385484D02*
X14133634Y-13395008D01*
X14133634Y-13395008D02*
X14143158Y-13404531D01*
X14143158Y-13404531D02*
X14152682Y-13423579D01*
X14152682Y-13423579D02*
X14162205Y-13461674D01*
X14162205Y-13461674D02*
X14162205Y-13509293D01*
X14162205Y-13509293D02*
X14152682Y-13547388D01*
X14152682Y-13547388D02*
X14143158Y-13566436D01*
X14143158Y-13566436D02*
X14133634Y-13575960D01*
X14133634Y-13575960D02*
X14114586Y-13585484D01*
X14114586Y-13585484D02*
X14095539Y-13585484D01*
X14095539Y-13585484D02*
X14076491Y-13575960D01*
X14076491Y-13575960D02*
X14066967Y-13566436D01*
X14066967Y-13566436D02*
X14057443Y-13547388D01*
X14057443Y-13547388D02*
X14047920Y-13509293D01*
X14047920Y-13509293D02*
X14047920Y-13461674D01*
X14047920Y-13461674D02*
X14057443Y-13423579D01*
X14057443Y-13423579D02*
X14066967Y-13404531D01*
X14066967Y-13404531D02*
X14076491Y-13395008D01*
X14076491Y-13395008D02*
X14095539Y-13385484D01*
X14247920Y-13585484D02*
X14247920Y-13452150D01*
X14247920Y-13471198D02*
X14257443Y-13461674D01*
X14257443Y-13461674D02*
X14276491Y-13452150D01*
X14276491Y-13452150D02*
X14305063Y-13452150D01*
X14305063Y-13452150D02*
X14324110Y-13461674D01*
X14324110Y-13461674D02*
X14333634Y-13480722D01*
X14333634Y-13480722D02*
X14333634Y-13585484D01*
X14333634Y-13480722D02*
X14343158Y-13461674D01*
X14343158Y-13461674D02*
X14362205Y-13452150D01*
X14362205Y-13452150D02*
X14390777Y-13452150D01*
X14390777Y-13452150D02*
X14409824Y-13461674D01*
X14409824Y-13461674D02*
X14419348Y-13480722D01*
X14419348Y-13480722D02*
X14419348Y-13585484D01*
X14514586Y-13585484D02*
X14514586Y-13452150D01*
X14514586Y-13471198D02*
X14524110Y-13461674D01*
X14524110Y-13461674D02*
X14543158Y-13452150D01*
X14543158Y-13452150D02*
X14571729Y-13452150D01*
X14571729Y-13452150D02*
X14590777Y-13461674D01*
X14590777Y-13461674D02*
X14600301Y-13480722D01*
X14600301Y-13480722D02*
X14600301Y-13585484D01*
X14600301Y-13480722D02*
X14609824Y-13461674D01*
X14609824Y-13461674D02*
X14628872Y-13452150D01*
X14628872Y-13452150D02*
X14657443Y-13452150D01*
X14657443Y-13452150D02*
X14676491Y-13461674D01*
X14676491Y-13461674D02*
X14686015Y-13480722D01*
X14686015Y-13480722D02*
X14686015Y-13585484D01*
X15076491Y-13375960D02*
X14905063Y-13633103D01*
X15333634Y-13385484D02*
X15352682Y-13385484D01*
X15352682Y-13385484D02*
X15371729Y-13395008D01*
X15371729Y-13395008D02*
X15381253Y-13404531D01*
X15381253Y-13404531D02*
X15390777Y-13423579D01*
X15390777Y-13423579D02*
X15400301Y-13461674D01*
X15400301Y-13461674D02*
X15400301Y-13509293D01*
X15400301Y-13509293D02*
X15390777Y-13547388D01*
X15390777Y-13547388D02*
X15381253Y-13566436D01*
X15381253Y-13566436D02*
X15371729Y-13575960D01*
X15371729Y-13575960D02*
X15352682Y-13585484D01*
X15352682Y-13585484D02*
X15333634Y-13585484D01*
X15333634Y-13585484D02*
X15314586Y-13575960D01*
X15314586Y-13575960D02*
X15305063Y-13566436D01*
X15305063Y-13566436D02*
X15295539Y-13547388D01*
X15295539Y-13547388D02*
X15286015Y-13509293D01*
X15286015Y-13509293D02*
X15286015Y-13461674D01*
X15286015Y-13461674D02*
X15295539Y-13423579D01*
X15295539Y-13423579D02*
X15305063Y-13404531D01*
X15305063Y-13404531D02*
X15314586Y-13395008D01*
X15314586Y-13395008D02*
X15333634Y-13385484D01*
X15486015Y-13566436D02*
X15495539Y-13575960D01*
X15495539Y-13575960D02*
X15486015Y-13585484D01*
X15486015Y-13585484D02*
X15476491Y-13575960D01*
X15476491Y-13575960D02*
X15486015Y-13566436D01*
X15486015Y-13566436D02*
X15486015Y-13585484D01*
X15619348Y-13385484D02*
X15638396Y-13385484D01*
X15638396Y-13385484D02*
X15657444Y-13395008D01*
X15657444Y-13395008D02*
X15666967Y-13404531D01*
X15666967Y-13404531D02*
X15676491Y-13423579D01*
X15676491Y-13423579D02*
X15686015Y-13461674D01*
X15686015Y-13461674D02*
X15686015Y-13509293D01*
X15686015Y-13509293D02*
X15676491Y-13547388D01*
X15676491Y-13547388D02*
X15666967Y-13566436D01*
X15666967Y-13566436D02*
X15657444Y-13575960D01*
X15657444Y-13575960D02*
X15638396Y-13585484D01*
X15638396Y-13585484D02*
X15619348Y-13585484D01*
X15619348Y-13585484D02*
X15600301Y-13575960D01*
X15600301Y-13575960D02*
X15590777Y-13566436D01*
X15590777Y-13566436D02*
X15581253Y-13547388D01*
X15581253Y-13547388D02*
X15571729Y-13509293D01*
X15571729Y-13509293D02*
X15571729Y-13461674D01*
X15571729Y-13461674D02*
X15581253Y-13423579D01*
X15581253Y-13423579D02*
X15590777Y-13404531D01*
X15590777Y-13404531D02*
X15600301Y-13395008D01*
X15600301Y-13395008D02*
X15619348Y-13385484D01*
X15752682Y-13385484D02*
X15876491Y-13385484D01*
X15876491Y-13385484D02*
X15809825Y-13461674D01*
X15809825Y-13461674D02*
X15838396Y-13461674D01*
X15838396Y-13461674D02*
X15857444Y-13471198D01*
X15857444Y-13471198D02*
X15866967Y-13480722D01*
X15866967Y-13480722D02*
X15876491Y-13499769D01*
X15876491Y-13499769D02*
X15876491Y-13547388D01*
X15876491Y-13547388D02*
X15866967Y-13566436D01*
X15866967Y-13566436D02*
X15857444Y-13575960D01*
X15857444Y-13575960D02*
X15838396Y-13585484D01*
X15838396Y-13585484D02*
X15781253Y-13585484D01*
X15781253Y-13585484D02*
X15762206Y-13575960D01*
X15762206Y-13575960D02*
X15752682Y-13566436D01*
X15943158Y-13385484D02*
X16076491Y-13385484D01*
X16076491Y-13385484D02*
X15990777Y-13585484D01*
X16238396Y-13452150D02*
X16238396Y-13585484D01*
X16190777Y-13375960D02*
X16143158Y-13518817D01*
X16143158Y-13518817D02*
X16266967Y-13518817D01*
X16333634Y-13385484D02*
X16333634Y-13423579D01*
X16409825Y-13385484D02*
X16409825Y-13423579D01*
X16705063Y-13661674D02*
X16695539Y-13652150D01*
X16695539Y-13652150D02*
X16676491Y-13623579D01*
X16676491Y-13623579D02*
X16666968Y-13604531D01*
X16666968Y-13604531D02*
X16657444Y-13575960D01*
X16657444Y-13575960D02*
X16647920Y-13528341D01*
X16647920Y-13528341D02*
X16647920Y-13490246D01*
X16647920Y-13490246D02*
X16657444Y-13442627D01*
X16657444Y-13442627D02*
X16666968Y-13414055D01*
X16666968Y-13414055D02*
X16676491Y-13395008D01*
X16676491Y-13395008D02*
X16695539Y-13366436D01*
X16695539Y-13366436D02*
X16705063Y-13356912D01*
X16790777Y-13585484D02*
X16828872Y-13585484D01*
X16828872Y-13585484D02*
X16847920Y-13575960D01*
X16847920Y-13575960D02*
X16857444Y-13566436D01*
X16857444Y-13566436D02*
X16876491Y-13537865D01*
X16876491Y-13537865D02*
X16886015Y-13499769D01*
X16886015Y-13499769D02*
X16886015Y-13423579D01*
X16886015Y-13423579D02*
X16876491Y-13404531D01*
X16876491Y-13404531D02*
X16866968Y-13395008D01*
X16866968Y-13395008D02*
X16847920Y-13385484D01*
X16847920Y-13385484D02*
X16809825Y-13385484D01*
X16809825Y-13385484D02*
X16790777Y-13395008D01*
X16790777Y-13395008D02*
X16781253Y-13404531D01*
X16781253Y-13404531D02*
X16771729Y-13423579D01*
X16771729Y-13423579D02*
X16771729Y-13471198D01*
X16771729Y-13471198D02*
X16781253Y-13490246D01*
X16781253Y-13490246D02*
X16790777Y-13499769D01*
X16790777Y-13499769D02*
X16809825Y-13509293D01*
X16809825Y-13509293D02*
X16847920Y-13509293D01*
X16847920Y-13509293D02*
X16866968Y-13499769D01*
X16866968Y-13499769D02*
X16876491Y-13490246D01*
X16876491Y-13490246D02*
X16886015Y-13471198D01*
X17124111Y-13585484D02*
X17124111Y-13385484D01*
X17209825Y-13585484D02*
X17209825Y-13480722D01*
X17209825Y-13480722D02*
X17200301Y-13461674D01*
X17200301Y-13461674D02*
X17181253Y-13452150D01*
X17181253Y-13452150D02*
X17152682Y-13452150D01*
X17152682Y-13452150D02*
X17133634Y-13461674D01*
X17133634Y-13461674D02*
X17124111Y-13471198D01*
X17333634Y-13585484D02*
X17314587Y-13575960D01*
X17314587Y-13575960D02*
X17305063Y-13566436D01*
X17305063Y-13566436D02*
X17295539Y-13547388D01*
X17295539Y-13547388D02*
X17295539Y-13490246D01*
X17295539Y-13490246D02*
X17305063Y-13471198D01*
X17305063Y-13471198D02*
X17314587Y-13461674D01*
X17314587Y-13461674D02*
X17333634Y-13452150D01*
X17333634Y-13452150D02*
X17362206Y-13452150D01*
X17362206Y-13452150D02*
X17381253Y-13461674D01*
X17381253Y-13461674D02*
X17390777Y-13471198D01*
X17390777Y-13471198D02*
X17400301Y-13490246D01*
X17400301Y-13490246D02*
X17400301Y-13547388D01*
X17400301Y-13547388D02*
X17390777Y-13566436D01*
X17390777Y-13566436D02*
X17381253Y-13575960D01*
X17381253Y-13575960D02*
X17362206Y-13585484D01*
X17362206Y-13585484D02*
X17333634Y-13585484D01*
X17514587Y-13585484D02*
X17495539Y-13575960D01*
X17495539Y-13575960D02*
X17486015Y-13556912D01*
X17486015Y-13556912D02*
X17486015Y-13385484D01*
X17666968Y-13575960D02*
X17647920Y-13585484D01*
X17647920Y-13585484D02*
X17609825Y-13585484D01*
X17609825Y-13585484D02*
X17590777Y-13575960D01*
X17590777Y-13575960D02*
X17581253Y-13556912D01*
X17581253Y-13556912D02*
X17581253Y-13480722D01*
X17581253Y-13480722D02*
X17590777Y-13461674D01*
X17590777Y-13461674D02*
X17609825Y-13452150D01*
X17609825Y-13452150D02*
X17647920Y-13452150D01*
X17647920Y-13452150D02*
X17666968Y-13461674D01*
X17666968Y-13461674D02*
X17676492Y-13480722D01*
X17676492Y-13480722D02*
X17676492Y-13499769D01*
X17676492Y-13499769D02*
X17581253Y-13518817D01*
X17752682Y-13575960D02*
X17771730Y-13585484D01*
X17771730Y-13585484D02*
X17809825Y-13585484D01*
X17809825Y-13585484D02*
X17828873Y-13575960D01*
X17828873Y-13575960D02*
X17838396Y-13556912D01*
X17838396Y-13556912D02*
X17838396Y-13547388D01*
X17838396Y-13547388D02*
X17828873Y-13528341D01*
X17828873Y-13528341D02*
X17809825Y-13518817D01*
X17809825Y-13518817D02*
X17781253Y-13518817D01*
X17781253Y-13518817D02*
X17762206Y-13509293D01*
X17762206Y-13509293D02*
X17752682Y-13490246D01*
X17752682Y-13490246D02*
X17752682Y-13480722D01*
X17752682Y-13480722D02*
X17762206Y-13461674D01*
X17762206Y-13461674D02*
X17781253Y-13452150D01*
X17781253Y-13452150D02*
X17809825Y-13452150D01*
X17809825Y-13452150D02*
X17828873Y-13461674D01*
X17905063Y-13661674D02*
X17914587Y-13652150D01*
X17914587Y-13652150D02*
X17933634Y-13623579D01*
X17933634Y-13623579D02*
X17943158Y-13604531D01*
X17943158Y-13604531D02*
X17952682Y-13575960D01*
X17952682Y-13575960D02*
X17962206Y-13528341D01*
X17962206Y-13528341D02*
X17962206Y-13490246D01*
X17962206Y-13490246D02*
X17952682Y-13442627D01*
X17952682Y-13442627D02*
X17943158Y-13414055D01*
X17943158Y-13414055D02*
X17933634Y-13395008D01*
X17933634Y-13395008D02*
X17914587Y-13366436D01*
X17914587Y-13366436D02*
X17905063Y-13356912D01*
M02*
