<?xml version="1.0" standalone="no"?>
 <!DOCTYPE svg PUBLIC "-//W3C//DTD SVG 1.1//EN" 
 "http://www.w3.org/Graphics/SVG/1.1/DTD/svg11.dtd"> 
<svg
  xmlns:svg="http://www.w3.org/2000/svg"
  xmlns="http://www.w3.org/2000/svg"
  xmlns:xlink="http://www.w3.org/1999/xlink"
  xmlns:inkscape="http://www.inkscape.org/namespaces/inkscape"
  version="1.1"
  width="29.9974mm" height="59.9948mm" viewBox="0.0000 0.0000 29.9974 59.9948">
<title>SVG Image created as pcb-bottom.svg date 2026-05-18T07:56:37 </title>
  <desc>Image generated by PCBNEW </desc>
<g style="fill:#000000; fill-opacity:1.0000;stroke:#000000; stroke-opacity:1.0000;
stroke-linecap:round; stroke-linejoin:round;"
 transform="translate(0 0) scale(1 1)">
</g>
<g style="fill:none; 
stroke:#C872AB; stroke-width:0.1500; stroke-opacity:1; 
stroke-linecap:round; stroke-linejoin:round;">
<path d="M-221.4000 -49.8000
L-113.4000 -49.8000
L-113.4000 -17.8000
L-221.4000 -17.8000
L-221.4000 -49.8000
" />
<path d="M-121.4000 -55.8000
L-111.4000 -55.8000
L-111.4000 -15.8000
L-121.4000 -15.8000
L-121.4000 -55.8000
" />
<path d="M-119.4000 -53.8000
L-113.4000 -53.8000
L-113.4000 -17.8000
L-119.4000 -17.8000
L-119.4000 -53.8000
" />
<path d="M-71.4000 -53.8000
L-71.4000 -55.8000
" />
<text x="-96.4000" y="-54.1500"
textLength="1.4281" font-size="1.7333" lengthAdjust="spacingAndGlyphs"
text-anchor="start" opacity="0" stroke-opacity="0">1</text>
<g class="stroked-text"><desc>1</desc>
<path d="M-95.3108 -54.2064
L-96.0537 -54.2064
" />
<path d="M-95.6823 -54.2064
L-95.6823 -55.5064
" />
<path d="M-95.6823 -55.5064
L-95.8061 -55.3207
" />
<path d="M-95.8061 -55.3207
L-95.9299 -55.1969
" />
<path d="M-95.9299 -55.1969
L-96.0537 -55.1350
" />
</g><path d="M-71.4000 -17.8000
L-71.4000 -15.8000
" />
<text x="-96.4000" y="-16.1500"
textLength="1.4281" font-size="1.7333" lengthAdjust="spacingAndGlyphs"
text-anchor="start" opacity="0" stroke-opacity="0">1</text>
<g class="stroked-text"><desc>1</desc>
<path d="M-95.3108 -16.2064
L-96.0537 -16.2064
" />
<path d="M-95.6823 -16.2064
L-95.6823 -17.5064
" />
<path d="M-95.6823 -17.5064
L-95.8061 -17.3207
" />
<path d="M-95.8061 -17.3207
L-95.9299 -17.1969
" />
<path d="M-95.9299 -17.1969
L-96.0537 -17.1350
" />
</g><path d="M-121.4000 -5.8000
L-119.4000 -5.8000
" />
<text x="-120.4000" y="-30.1500"
textLength="1.3043" font-size="1.7333" lengthAdjust="spacingAndGlyphs"
text-anchor="middle" opacity="0" stroke-opacity="0">A</text>
<g class="stroked-text"><desc>A</desc>
<path d="M-120.7095 -30.5778
L-120.0905 -30.5778
" />
<path d="M-120.8333 -30.2064
L-120.4000 -31.5064
" />
<path d="M-120.4000 -31.5064
L-119.9667 -30.2064
" />
</g><path d="M-111.4000 -5.8000
L-113.4000 -5.8000
" />
<text x="-112.4000" y="-30.1500"
textLength="1.3043" font-size="1.7333" lengthAdjust="spacingAndGlyphs"
text-anchor="middle" opacity="0" stroke-opacity="0">A</text>
<g class="stroked-text"><desc>A</desc>
<path d="M-112.7095 -30.5778
L-112.0905 -30.5778
" />
<path d="M-112.8333 -30.2064
L-112.4000 -31.5064
" />
<path d="M-112.4000 -31.5064
L-111.9667 -30.2064
" />
</g><text x="-198.4000" y="-21.9500"
textLength="7.0071" font-size="2.0000" lengthAdjust="spacingAndGlyphs"
text-anchor="start" opacity="0" stroke-opacity="0">Date: </text>
<g class="stroked-text"><desc>Date: </desc>
<path d="M-197.9442 -22.0139
L-197.9442 -23.5139
" />
<path d="M-197.9442 -23.5139
L-197.5870 -23.5139
" />
<path d="M-197.5870 -23.5139
L-197.3727 -23.4424
" />
<path d="M-197.3727 -23.4424
L-197.2299 -23.2996
" />
<path d="M-197.2299 -23.2996
L-197.1585 -23.1567
" />
<path d="M-197.1585 -23.1567
L-197.0870 -22.8710
" />
<path d="M-197.0870 -22.8710
L-197.0870 -22.6567
" />
<path d="M-197.0870 -22.6567
L-197.1585 -22.3710
" />
<path d="M-197.1585 -22.3710
L-197.2299 -22.2282
" />
<path d="M-197.2299 -22.2282
L-197.3727 -22.0853
" />
<path d="M-197.3727 -22.0853
L-197.5870 -22.0139
" />
<path d="M-197.5870 -22.0139
L-197.9442 -22.0139
" />
<path d="M-195.8013 -22.0139
L-195.8013 -22.7996
" />
<path d="M-195.8013 -22.7996
L-195.8727 -22.9424
" />
<path d="M-195.8727 -22.9424
L-196.0156 -23.0139
" />
<path d="M-196.0156 -23.0139
L-196.3013 -23.0139
" />
<path d="M-196.3013 -23.0139
L-196.4442 -22.9424
" />
<path d="M-195.8013 -22.0853
L-195.9442 -22.0139
" />
<path d="M-195.9442 -22.0139
L-196.3013 -22.0139
" />
<path d="M-196.3013 -22.0139
L-196.4442 -22.0853
" />
<path d="M-196.4442 -22.0853
L-196.5156 -22.2282
" />
<path d="M-196.5156 -22.2282
L-196.5156 -22.3710
" />
<path d="M-196.5156 -22.3710
L-196.4442 -22.5139
" />
<path d="M-196.4442 -22.5139
L-196.3013 -22.5853
" />
<path d="M-196.3013 -22.5853
L-195.9442 -22.5853
" />
<path d="M-195.9442 -22.5853
L-195.8013 -22.6567
" />
<path d="M-195.3013 -23.0139
L-194.7299 -23.0139
" />
<path d="M-195.0870 -23.5139
L-195.0870 -22.2282
" />
<path d="M-195.0870 -22.2282
L-195.0156 -22.0853
" />
<path d="M-195.0156 -22.0853
L-194.8727 -22.0139
" />
<path d="M-194.8727 -22.0139
L-194.7299 -22.0139
" />
<path d="M-193.6585 -22.0853
L-193.8013 -22.0139
" />
<path d="M-193.8013 -22.0139
L-194.0870 -22.0139
" />
<path d="M-194.0870 -22.0139
L-194.2299 -22.0853
" />
<path d="M-194.2299 -22.0853
L-194.3013 -22.2282
" />
<path d="M-194.3013 -22.2282
L-194.3013 -22.7996
" />
<path d="M-194.3013 -22.7996
L-194.2299 -22.9424
" />
<path d="M-194.2299 -22.9424
L-194.0870 -23.0139
" />
<path d="M-194.0870 -23.0139
L-193.8013 -23.0139
" />
<path d="M-193.8013 -23.0139
L-193.6585 -22.9424
" />
<path d="M-193.6585 -22.9424
L-193.5870 -22.7996
" />
<path d="M-193.5870 -22.7996
L-193.5870 -22.6567
" />
<path d="M-193.5870 -22.6567
L-194.3013 -22.5139
" />
<path d="M-192.9442 -22.1567
L-192.8727 -22.0853
" />
<path d="M-192.8727 -22.0853
L-192.9442 -22.0139
" />
<path d="M-192.9442 -22.0139
L-193.0156 -22.0853
" />
<path d="M-193.0156 -22.0853
L-192.9442 -22.1567
" />
<path d="M-192.9442 -22.1567
L-192.9442 -22.0139
" />
<path d="M-192.9442 -22.9424
L-192.8727 -22.8710
" />
<path d="M-192.8727 -22.8710
L-192.9442 -22.7996
" />
<path d="M-192.9442 -22.7996
L-193.0156 -22.8710
" />
<path d="M-193.0156 -22.8710
L-192.9442 -22.9424
" />
<path d="M-192.9442 -22.9424
L-192.9442 -22.7996
" />
</g><path d="M-221.4000 -21.3000
L-113.4000 -21.3000
" />
<text x="-220.4000" y="-19.1500"
textLength="22.2929" font-size="2.0000" lengthAdjust="spacingAndGlyphs"
text-anchor="start" opacity="0" stroke-opacity="0">KiCad E.D.A. 10.0.1</text>
<g class="stroked-text"><desc>KiCad E.D.A. 10.0.1</desc>
<path d="M-219.9442 -19.2139
L-219.9442 -20.7139
" />
<path d="M-219.0870 -19.2139
L-219.7299 -20.0710
" />
<path d="M-219.0870 -20.7139
L-219.9442 -19.8567
" />
<path d="M-218.4442 -19.2139
L-218.4442 -20.2139
" />
<path d="M-218.4442 -20.7139
L-218.5156 -20.6424
" />
<path d="M-218.5156 -20.6424
L-218.4442 -20.5710
" />
<path d="M-218.4442 -20.5710
L-218.3727 -20.6424
" />
<path d="M-218.3727 -20.6424
L-218.4442 -20.7139
" />
<path d="M-218.4442 -20.7139
L-218.4442 -20.5710
" />
<path d="M-216.8727 -19.3567
L-216.9442 -19.2853
" />
<path d="M-216.9442 -19.2853
L-217.1585 -19.2139
" />
<path d="M-217.1585 -19.2139
L-217.3013 -19.2139
" />
<path d="M-217.3013 -19.2139
L-217.5156 -19.2853
" />
<path d="M-217.5156 -19.2853
L-217.6585 -19.4282
" />
<path d="M-217.6585 -19.4282
L-217.7299 -19.5710
" />
<path d="M-217.7299 -19.5710
L-217.8013 -19.8567
" />
<path d="M-217.8013 -19.8567
L-217.8013 -20.0710
" />
<path d="M-217.8013 -20.0710
L-217.7299 -20.3567
" />
<path d="M-217.7299 -20.3567
L-217.6585 -20.4996
" />
<path d="M-217.6585 -20.4996
L-217.5156 -20.6424
" />
<path d="M-217.5156 -20.6424
L-217.3013 -20.7139
" />
<path d="M-217.3013 -20.7139
L-217.1585 -20.7139
" />
<path d="M-217.1585 -20.7139
L-216.9442 -20.6424
" />
<path d="M-216.9442 -20.6424
L-216.8727 -20.5710
" />
<path d="M-215.5870 -19.2139
L-215.5870 -19.9996
" />
<path d="M-215.5870 -19.9996
L-215.6585 -20.1424
" />
<path d="M-215.6585 -20.1424
L-215.8013 -20.2139
" />
<path d="M-215.8013 -20.2139
L-216.0870 -20.2139
" />
<path d="M-216.0870 -20.2139
L-216.2299 -20.1424
" />
<path d="M-215.5870 -19.2853
L-215.7299 -19.2139
" />
<path d="M-215.7299 -19.2139
L-216.0870 -19.2139
" />
<path d="M-216.0870 -19.2139
L-216.2299 -19.2853
" />
<path d="M-216.2299 -19.2853
L-216.3013 -19.4282
" />
<path d="M-216.3013 -19.4282
L-216.3013 -19.5710
" />
<path d="M-216.3013 -19.5710
L-216.2299 -19.7139
" />
<path d="M-216.2299 -19.7139
L-216.0870 -19.7853
" />
<path d="M-216.0870 -19.7853
L-215.7299 -19.7853
" />
<path d="M-215.7299 -19.7853
L-215.5870 -19.8567
" />
<path d="M-214.2299 -19.2139
L-214.2299 -20.7139
" />
<path d="M-214.2299 -19.2853
L-214.3727 -19.2139
" />
<path d="M-214.3727 -19.2139
L-214.6585 -19.2139
" />
<path d="M-214.6585 -19.2139
L-214.8013 -19.2853
" />
<path d="M-214.8013 -19.2853
L-214.8727 -19.3567
" />
<path d="M-214.8727 -19.3567
L-214.9442 -19.4996
" />
<path d="M-214.9442 -19.4996
L-214.9442 -19.9282
" />
<path d="M-214.9442 -19.9282
L-214.8727 -20.0710
" />
<path d="M-214.8727 -20.0710
L-214.8013 -20.1424
" />
<path d="M-214.8013 -20.1424
L-214.6585 -20.2139
" />
<path d="M-214.6585 -20.2139
L-214.3727 -20.2139
" />
<path d="M-214.3727 -20.2139
L-214.2299 -20.1424
" />
<path d="M-212.3727 -19.9996
L-211.8727 -19.9996
" />
<path d="M-211.6585 -19.2139
L-212.3727 -19.2139
" />
<path d="M-212.3727 -19.2139
L-212.3727 -20.7139
" />
<path d="M-212.3727 -20.7139
L-211.6585 -20.7139
" />
<path d="M-211.0156 -19.3567
L-210.9442 -19.2853
" />
<path d="M-210.9442 -19.2853
L-211.0156 -19.2139
" />
<path d="M-211.0156 -19.2139
L-211.0870 -19.2853
" />
<path d="M-211.0870 -19.2853
L-211.0156 -19.3567
" />
<path d="M-211.0156 -19.3567
L-211.0156 -19.2139
" />
<path d="M-210.3013 -19.2139
L-210.3013 -20.7139
" />
<path d="M-210.3013 -20.7139
L-209.9442 -20.7139
" />
<path d="M-209.9442 -20.7139
L-209.7299 -20.6424
" />
<path d="M-209.7299 -20.6424
L-209.5870 -20.4996
" />
<path d="M-209.5870 -20.4996
L-209.5156 -20.3567
" />
<path d="M-209.5156 -20.3567
L-209.4442 -20.0710
" />
<path d="M-209.4442 -20.0710
L-209.4442 -19.8567
" />
<path d="M-209.4442 -19.8567
L-209.5156 -19.5710
" />
<path d="M-209.5156 -19.5710
L-209.5870 -19.4282
" />
<path d="M-209.5870 -19.4282
L-209.7299 -19.2853
" />
<path d="M-209.7299 -19.2853
L-209.9442 -19.2139
" />
<path d="M-209.9442 -19.2139
L-210.3013 -19.2139
" />
<path d="M-208.8013 -19.3567
L-208.7299 -19.2853
" />
<path d="M-208.7299 -19.2853
L-208.8013 -19.2139
" />
<path d="M-208.8013 -19.2139
L-208.8727 -19.2853
" />
<path d="M-208.8727 -19.2853
L-208.8013 -19.3567
" />
<path d="M-208.8013 -19.3567
L-208.8013 -19.2139
" />
<path d="M-208.1585 -19.6424
L-207.4442 -19.6424
" />
<path d="M-208.3013 -19.2139
L-207.8013 -20.7139
" />
<path d="M-207.8013 -20.7139
L-207.3013 -19.2139
" />
<path d="M-206.8013 -19.3567
L-206.7299 -19.2853
" />
<path d="M-206.7299 -19.2853
L-206.8013 -19.2139
" />
<path d="M-206.8013 -19.2139
L-206.8727 -19.2853
" />
<path d="M-206.8727 -19.2853
L-206.8013 -19.3567
" />
<path d="M-206.8013 -19.3567
L-206.8013 -19.2139
" />
<path d="M-204.1585 -19.2139
L-205.0156 -19.2139
" />
<path d="M-204.5870 -19.2139
L-204.5870 -20.7139
" />
<path d="M-204.5870 -20.7139
L-204.7299 -20.4996
" />
<path d="M-204.7299 -20.4996
L-204.8727 -20.3567
" />
<path d="M-204.8727 -20.3567
L-205.0156 -20.2853
" />
<path d="M-203.2299 -20.7139
L-203.0870 -20.7139
" />
<path d="M-203.0870 -20.7139
L-202.9442 -20.6424
" />
<path d="M-202.9442 -20.6424
L-202.8727 -20.5710
" />
<path d="M-202.8727 -20.5710
L-202.8013 -20.4282
" />
<path d="M-202.8013 -20.4282
L-202.7299 -20.1424
" />
<path d="M-202.7299 -20.1424
L-202.7299 -19.7853
" />
<path d="M-202.7299 -19.7853
L-202.8013 -19.4996
" />
<path d="M-202.8013 -19.4996
L-202.8727 -19.3567
" />
<path d="M-202.8727 -19.3567
L-202.9442 -19.2853
" />
<path d="M-202.9442 -19.2853
L-203.0870 -19.2139
" />
<path d="M-203.0870 -19.2139
L-203.2299 -19.2139
" />
<path d="M-203.2299 -19.2139
L-203.3727 -19.2853
" />
<path d="M-203.3727 -19.2853
L-203.4442 -19.3567
" />
<path d="M-203.4442 -19.3567
L-203.5156 -19.4996
" />
<path d="M-203.5156 -19.4996
L-203.5870 -19.7853
" />
<path d="M-203.5870 -19.7853
L-203.5870 -20.1424
" />
<path d="M-203.5870 -20.1424
L-203.5156 -20.4282
" />
<path d="M-203.5156 -20.4282
L-203.4442 -20.5710
" />
<path d="M-203.4442 -20.5710
L-203.3727 -20.6424
" />
<path d="M-203.3727 -20.6424
L-203.2299 -20.7139
" />
<path d="M-202.0870 -19.3567
L-202.0156 -19.2853
" />
<path d="M-202.0156 -19.2853
L-202.0870 -19.2139
" />
<path d="M-202.0870 -19.2139
L-202.1585 -19.2853
" />
<path d="M-202.1585 -19.2853
L-202.0870 -19.3567
" />
<path d="M-202.0870 -19.3567
L-202.0870 -19.2139
" />
<path d="M-201.0870 -20.7139
L-200.9442 -20.7139
" />
<path d="M-200.9442 -20.7139
L-200.8013 -20.6424
" />
<path d="M-200.8013 -20.6424
L-200.7299 -20.5710
" />
<path d="M-200.7299 -20.5710
L-200.6585 -20.4282
" />
<path d="M-200.6585 -20.4282
L-200.5870 -20.1424
" />
<path d="M-200.5870 -20.1424
L-200.5870 -19.7853
" />
<path d="M-200.5870 -19.7853
L-200.6585 -19.4996
" />
<path d="M-200.6585 -19.4996
L-200.7299 -19.3567
" />
<path d="M-200.7299 -19.3567
L-200.8013 -19.2853
" />
<path d="M-200.8013 -19.2853
L-200.9442 -19.2139
" />
<path d="M-200.9442 -19.2139
L-201.0870 -19.2139
" />
<path d="M-201.0870 -19.2139
L-201.2299 -19.2853
" />
<path d="M-201.2299 -19.2853
L-201.3013 -19.3567
" />
<path d="M-201.3013 -19.3567
L-201.3727 -19.4996
" />
<path d="M-201.3727 -19.4996
L-201.4442 -19.7853
" />
<path d="M-201.4442 -19.7853
L-201.4442 -20.1424
" />
<path d="M-201.4442 -20.1424
L-201.3727 -20.4282
" />
<path d="M-201.3727 -20.4282
L-201.3013 -20.5710
" />
<path d="M-201.3013 -20.5710
L-201.2299 -20.6424
" />
<path d="M-201.2299 -20.6424
L-201.0870 -20.7139
" />
<path d="M-199.9442 -19.3567
L-199.8727 -19.2853
" />
<path d="M-199.8727 -19.2853
L-199.9442 -19.2139
" />
<path d="M-199.9442 -19.2139
L-200.0156 -19.2853
" />
<path d="M-200.0156 -19.2853
L-199.9442 -19.3567
" />
<path d="M-199.9442 -19.3567
L-199.9442 -19.2139
" />
<path d="M-198.4442 -19.2139
L-199.3013 -19.2139
" />
<path d="M-198.8727 -19.2139
L-198.8727 -20.7139
" />
<path d="M-198.8727 -20.7139
L-199.0156 -20.4996
" />
<path d="M-199.0156 -20.4996
L-199.1585 -20.3567
" />
<path d="M-199.1585 -20.3567
L-199.3013 -20.2853
" />
</g><path d="M-221.4000 -24.3000
L-113.4000 -24.3000
" />
</g>
<g style="fill:none; 
stroke:#C872AB; stroke-width:0.3000; stroke-opacity:1; 
stroke-linecap:round; stroke-linejoin:round;">
<text x="-135.4000" y="-21.9500"
textLength="6.3857" font-size="2.0000" lengthAdjust="spacingAndGlyphs"
text-anchor="start" opacity="0" stroke-opacity="0">Rev: </text>
<g class="stroked-text"><desc>Rev: </desc>
<path d="M-133.9883 -22.0217
L-134.4883 -22.7360
" />
<path d="M-134.8455 -22.0217
L-134.8455 -23.5217
" />
<path d="M-134.8455 -23.5217
L-134.2741 -23.5217
" />
<path d="M-134.2741 -23.5217
L-134.1312 -23.4502
" />
<path d="M-134.1312 -23.4502
L-134.0598 -23.3788
" />
<path d="M-134.0598 -23.3788
L-133.9883 -23.2360
" />
<path d="M-133.9883 -23.2360
L-133.9883 -23.0217
" />
<path d="M-133.9883 -23.0217
L-134.0598 -22.8788
" />
<path d="M-134.0598 -22.8788
L-134.1312 -22.8074
" />
<path d="M-134.1312 -22.8074
L-134.2741 -22.7360
" />
<path d="M-134.2741 -22.7360
L-134.8455 -22.7360
" />
<path d="M-132.7741 -22.0931
L-132.9169 -22.0217
" />
<path d="M-132.9169 -22.0217
L-133.2026 -22.0217
" />
<path d="M-133.2026 -22.0217
L-133.3455 -22.0931
" />
<path d="M-133.3455 -22.0931
L-133.4169 -22.2360
" />
<path d="M-133.4169 -22.2360
L-133.4169 -22.8074
" />
<path d="M-133.4169 -22.8074
L-133.3455 -22.9502
" />
<path d="M-133.3455 -22.9502
L-133.2026 -23.0217
" />
<path d="M-133.2026 -23.0217
L-132.9169 -23.0217
" />
<path d="M-132.9169 -23.0217
L-132.7741 -22.9502
" />
<path d="M-132.7741 -22.9502
L-132.7026 -22.8074
" />
<path d="M-132.7026 -22.8074
L-132.7026 -22.6645
" />
<path d="M-132.7026 -22.6645
L-133.4169 -22.5217
" />
<path d="M-132.2026 -23.0217
L-131.8455 -22.0217
" />
<path d="M-131.8455 -22.0217
L-131.4883 -23.0217
" />
<path d="M-130.9169 -22.1645
L-130.8455 -22.0931
" />
<path d="M-130.8455 -22.0931
L-130.9169 -22.0217
" />
<path d="M-130.9169 -22.0217
L-130.9883 -22.0931
" />
<path d="M-130.9883 -22.0931
L-130.9169 -22.1645
" />
<path d="M-130.9169 -22.1645
L-130.9169 -22.0217
" />
<path d="M-130.9169 -22.9502
L-130.8455 -22.8788
" />
<path d="M-130.8455 -22.8788
L-130.9169 -22.8074
" />
<path d="M-130.9169 -22.8074
L-130.9883 -22.8788
" />
<path d="M-130.9883 -22.8788
L-130.9169 -22.9502
" />
<path d="M-130.9169 -22.9502
L-130.9169 -22.8074
" />
</g></g>
<g style="fill:none; 
stroke:#C872AB; stroke-width:0.1500; stroke-opacity:1; 
stroke-linecap:round; stroke-linejoin:round;">
<text x="-220.4000" y="-21.9500"
textLength="11.6500" font-size="2.0000" lengthAdjust="spacingAndGlyphs"
text-anchor="start" opacity="0" stroke-opacity="0">Size: User</text>
<g class="stroked-text"><desc>Size: User</desc>
<path d="M-220.0156 -22.0853
L-219.8013 -22.0139
" />
<path d="M-219.8013 -22.0139
L-219.4442 -22.0139
" />
<path d="M-219.4442 -22.0139
L-219.3013 -22.0853
" />
<path d="M-219.3013 -22.0853
L-219.2299 -22.1567
" />
<path d="M-219.2299 -22.1567
L-219.1585 -22.2996
" />
<path d="M-219.1585 -22.2996
L-219.1585 -22.4424
" />
<path d="M-219.1585 -22.4424
L-219.2299 -22.5853
" />
<path d="M-219.2299 -22.5853
L-219.3013 -22.6567
" />
<path d="M-219.3013 -22.6567
L-219.4442 -22.7282
" />
<path d="M-219.4442 -22.7282
L-219.7299 -22.7996
" />
<path d="M-219.7299 -22.7996
L-219.8727 -22.8710
" />
<path d="M-219.8727 -22.8710
L-219.9442 -22.9424
" />
<path d="M-219.9442 -22.9424
L-220.0156 -23.0853
" />
<path d="M-220.0156 -23.0853
L-220.0156 -23.2282
" />
<path d="M-220.0156 -23.2282
L-219.9442 -23.3710
" />
<path d="M-219.9442 -23.3710
L-219.8727 -23.4424
" />
<path d="M-219.8727 -23.4424
L-219.7299 -23.5139
" />
<path d="M-219.7299 -23.5139
L-219.3727 -23.5139
" />
<path d="M-219.3727 -23.5139
L-219.1585 -23.4424
" />
<path d="M-218.5156 -22.0139
L-218.5156 -23.0139
" />
<path d="M-218.5156 -23.5139
L-218.5870 -23.4424
" />
<path d="M-218.5870 -23.4424
L-218.5156 -23.3710
" />
<path d="M-218.5156 -23.3710
L-218.4442 -23.4424
" />
<path d="M-218.4442 -23.4424
L-218.5156 -23.5139
" />
<path d="M-218.5156 -23.5139
L-218.5156 -23.3710
" />
<path d="M-217.9442 -23.0139
L-217.1585 -23.0139
" />
<path d="M-217.1585 -23.0139
L-217.9442 -22.0139
" />
<path d="M-217.9442 -22.0139
L-217.1585 -22.0139
" />
<path d="M-216.0156 -22.0853
L-216.1585 -22.0139
" />
<path d="M-216.1585 -22.0139
L-216.4442 -22.0139
" />
<path d="M-216.4442 -22.0139
L-216.5870 -22.0853
" />
<path d="M-216.5870 -22.0853
L-216.6585 -22.2282
" />
<path d="M-216.6585 -22.2282
L-216.6585 -22.7996
" />
<path d="M-216.6585 -22.7996
L-216.5870 -22.9424
" />
<path d="M-216.5870 -22.9424
L-216.4442 -23.0139
" />
<path d="M-216.4442 -23.0139
L-216.1585 -23.0139
" />
<path d="M-216.1585 -23.0139
L-216.0156 -22.9424
" />
<path d="M-216.0156 -22.9424
L-215.9442 -22.7996
" />
<path d="M-215.9442 -22.7996
L-215.9442 -22.6567
" />
<path d="M-215.9442 -22.6567
L-216.6585 -22.5139
" />
<path d="M-215.3013 -22.1567
L-215.2299 -22.0853
" />
<path d="M-215.2299 -22.0853
L-215.3013 -22.0139
" />
<path d="M-215.3013 -22.0139
L-215.3727 -22.0853
" />
<path d="M-215.3727 -22.0853
L-215.3013 -22.1567
" />
<path d="M-215.3013 -22.1567
L-215.3013 -22.0139
" />
<path d="M-215.3013 -22.9424
L-215.2299 -22.8710
" />
<path d="M-215.2299 -22.8710
L-215.3013 -22.7996
" />
<path d="M-215.3013 -22.7996
L-215.3727 -22.8710
" />
<path d="M-215.3727 -22.8710
L-215.3013 -22.9424
" />
<path d="M-215.3013 -22.9424
L-215.3013 -22.7996
" />
<path d="M-213.4442 -23.5139
L-213.4442 -22.2996
" />
<path d="M-213.4442 -22.2996
L-213.3727 -22.1567
" />
<path d="M-213.3727 -22.1567
L-213.3013 -22.0853
" />
<path d="M-213.3013 -22.0853
L-213.1585 -22.0139
" />
<path d="M-213.1585 -22.0139
L-212.8727 -22.0139
" />
<path d="M-212.8727 -22.0139
L-212.7299 -22.0853
" />
<path d="M-212.7299 -22.0853
L-212.6585 -22.1567
" />
<path d="M-212.6585 -22.1567
L-212.5870 -22.2996
" />
<path d="M-212.5870 -22.2996
L-212.5870 -23.5139
" />
<path d="M-211.9442 -22.0853
L-211.8013 -22.0139
" />
<path d="M-211.8013 -22.0139
L-211.5156 -22.0139
" />
<path d="M-211.5156 -22.0139
L-211.3727 -22.0853
" />
<path d="M-211.3727 -22.0853
L-211.3013 -22.2282
" />
<path d="M-211.3013 -22.2282
L-211.3013 -22.2996
" />
<path d="M-211.3013 -22.2996
L-211.3727 -22.4424
" />
<path d="M-211.3727 -22.4424
L-211.5156 -22.5139
" />
<path d="M-211.5156 -22.5139
L-211.7299 -22.5139
" />
<path d="M-211.7299 -22.5139
L-211.8727 -22.5853
" />
<path d="M-211.8727 -22.5853
L-211.9442 -22.7282
" />
<path d="M-211.9442 -22.7282
L-211.9442 -22.7996
" />
<path d="M-211.9442 -22.7996
L-211.8727 -22.9424
" />
<path d="M-211.8727 -22.9424
L-211.7299 -23.0139
" />
<path d="M-211.7299 -23.0139
L-211.5156 -23.0139
" />
<path d="M-211.5156 -23.0139
L-211.3727 -22.9424
" />
<path d="M-210.0870 -22.0853
L-210.2299 -22.0139
" />
<path d="M-210.2299 -22.0139
L-210.5156 -22.0139
" />
<path d="M-210.5156 -22.0139
L-210.6585 -22.0853
" />
<path d="M-210.6585 -22.0853
L-210.7299 -22.2282
" />
<path d="M-210.7299 -22.2282
L-210.7299 -22.7996
" />
<path d="M-210.7299 -22.7996
L-210.6585 -22.9424
" />
<path d="M-210.6585 -22.9424
L-210.5156 -23.0139
" />
<path d="M-210.5156 -23.0139
L-210.2299 -23.0139
" />
<path d="M-210.2299 -23.0139
L-210.0870 -22.9424
" />
<path d="M-210.0870 -22.9424
L-210.0156 -22.7996
" />
<path d="M-210.0156 -22.7996
L-210.0156 -22.6567
" />
<path d="M-210.0156 -22.6567
L-210.7299 -22.5139
" />
<path d="M-209.3727 -22.0139
L-209.3727 -23.0139
" />
<path d="M-209.3727 -22.7282
L-209.3013 -22.8710
" />
<path d="M-209.3013 -22.8710
L-209.2299 -22.9424
" />
<path d="M-209.2299 -22.9424
L-209.0870 -23.0139
" />
<path d="M-209.0870 -23.0139
L-208.9442 -23.0139
" />
</g><text x="-135.4000" y="-19.1500"
textLength="8.5071" font-size="2.0000" lengthAdjust="spacingAndGlyphs"
text-anchor="start" opacity="0" stroke-opacity="0">Id: 1/1</text>
<g class="stroked-text"><desc>Id: 1/1</desc>
<path d="M-134.9442 -19.2139
L-134.9442 -20.7139
" />
<path d="M-133.5870 -19.2139
L-133.5870 -20.7139
" />
<path d="M-133.5870 -19.2853
L-133.7299 -19.2139
" />
<path d="M-133.7299 -19.2139
L-134.0156 -19.2139
" />
<path d="M-134.0156 -19.2139
L-134.1585 -19.2853
" />
<path d="M-134.1585 -19.2853
L-134.2299 -19.3567
" />
<path d="M-134.2299 -19.3567
L-134.3013 -19.4996
" />
<path d="M-134.3013 -19.4996
L-134.3013 -19.9282
" />
<path d="M-134.3013 -19.9282
L-134.2299 -20.0710
" />
<path d="M-134.2299 -20.0710
L-134.1585 -20.1424
" />
<path d="M-134.1585 -20.1424
L-134.0156 -20.2139
" />
<path d="M-134.0156 -20.2139
L-133.7299 -20.2139
" />
<path d="M-133.7299 -20.2139
L-133.5870 -20.1424
" />
<path d="M-132.8727 -19.3567
L-132.8013 -19.2853
" />
<path d="M-132.8013 -19.2853
L-132.8727 -19.2139
" />
<path d="M-132.8727 -19.2139
L-132.9442 -19.2853
" />
<path d="M-132.9442 -19.2853
L-132.8727 -19.3567
" />
<path d="M-132.8727 -19.3567
L-132.8727 -19.2139
" />
<path d="M-132.8727 -20.1424
L-132.8013 -20.0710
" />
<path d="M-132.8013 -20.0710
L-132.8727 -19.9996
" />
<path d="M-132.8727 -19.9996
L-132.9442 -20.0710
" />
<path d="M-132.9442 -20.0710
L-132.8727 -20.1424
" />
<path d="M-132.8727 -20.1424
L-132.8727 -19.9996
" />
<path d="M-130.2299 -19.2139
L-131.0870 -19.2139
" />
<path d="M-130.6585 -19.2139
L-130.6585 -20.7139
" />
<path d="M-130.6585 -20.7139
L-130.8013 -20.4996
" />
<path d="M-130.8013 -20.4996
L-130.9442 -20.3567
" />
<path d="M-130.9442 -20.3567
L-131.0870 -20.2853
" />
<path d="M-128.5156 -20.7853
L-129.8013 -18.8567
" />
<path d="M-127.2299 -19.2139
L-128.0870 -19.2139
" />
<path d="M-127.6585 -19.2139
L-127.6585 -20.7139
" />
<path d="M-127.6585 -20.7139
L-127.8013 -20.4996
" />
<path d="M-127.8013 -20.4996
L-127.9442 -20.3567
" />
<path d="M-127.9442 -20.3567
L-128.0870 -20.2853
" />
</g><path d="M-221.4000 -28.3000
L-113.4000 -28.3000
" />
</g>
<g style="fill:none; 
stroke:#C872AB; stroke-width:0.4000; stroke-opacity:1; 
stroke-linecap:round; stroke-linejoin:round;">
<text x="-220.4000" y="-25.5000"
textLength="9.6571" font-size="2.6667" lengthAdjust="spacingAndGlyphs"
text-anchor="start" opacity="0" stroke-opacity="0">Title: </text>
<g class="stroked-text"><desc>Title: </desc>
<path d="M-219.7083 -27.5956
L-218.5654 -27.5956
" />
<path d="M-219.3868 -25.5956
L-219.1368 -27.5956
" />
<path d="M-218.1487 -25.5956
L-217.9821 -26.9289
" />
<path d="M-217.8987 -27.5956
L-218.0059 -27.5003
" />
<path d="M-218.0059 -27.5003
L-217.9226 -27.4051
" />
<path d="M-217.9226 -27.4051
L-217.8154 -27.5003
" />
<path d="M-217.8154 -27.5003
L-217.8987 -27.5956
" />
<path d="M-217.8987 -27.5956
L-217.9226 -27.4051
" />
<path d="M-217.3154 -26.9289
L-216.5535 -26.9289
" />
<path d="M-216.9464 -27.5956
L-217.1607 -25.8813
" />
<path d="M-217.1607 -25.8813
L-217.0892 -25.6908
" />
<path d="M-217.0892 -25.6908
L-216.9107 -25.5956
" />
<path d="M-216.9107 -25.5956
L-216.7202 -25.5956
" />
<path d="M-215.7678 -25.5956
L-215.9464 -25.6908
" />
<path d="M-215.9464 -25.6908
L-216.0178 -25.8813
" />
<path d="M-216.0178 -25.8813
L-215.8035 -27.5956
" />
<path d="M-214.2321 -25.6908
L-214.4345 -25.5956
" />
<path d="M-214.4345 -25.5956
L-214.8154 -25.5956
" />
<path d="M-214.8154 -25.5956
L-214.9940 -25.6908
" />
<path d="M-214.9940 -25.6908
L-215.0654 -25.8813
" />
<path d="M-215.0654 -25.8813
L-214.9702 -26.6432
" />
<path d="M-214.9702 -26.6432
L-214.8511 -26.8337
" />
<path d="M-214.8511 -26.8337
L-214.6487 -26.9289
" />
<path d="M-214.6487 -26.9289
L-214.2678 -26.9289
" />
<path d="M-214.2678 -26.9289
L-214.0892 -26.8337
" />
<path d="M-214.0892 -26.8337
L-214.0178 -26.6432
" />
<path d="M-214.0178 -26.6432
L-214.0416 -26.4527
" />
<path d="M-214.0416 -26.4527
L-215.0178 -26.2622
" />
<path d="M-213.2678 -25.7860
L-213.1845 -25.6908
" />
<path d="M-213.1845 -25.6908
L-213.2916 -25.5956
" />
<path d="M-213.2916 -25.5956
L-213.3749 -25.6908
" />
<path d="M-213.3749 -25.6908
L-213.2678 -25.7860
" />
<path d="M-213.2678 -25.7860
L-213.2916 -25.5956
" />
<path d="M-213.1368 -26.8337
L-213.0535 -26.7384
" />
<path d="M-213.0535 -26.7384
L-213.1607 -26.6432
" />
<path d="M-213.1607 -26.6432
L-213.2440 -26.7384
" />
<path d="M-213.2440 -26.7384
L-213.1368 -26.8337
" />
<path d="M-213.1368 -26.8337
L-213.1607 -26.6432
" />
</g></g>
<g style="fill:none; 
stroke:#C872AB; stroke-width:0.1500; stroke-opacity:1; 
stroke-linecap:round; stroke-linejoin:round;">
<text x="-220.4000" y="-29.3500"
textLength="63.0786" font-size="2.0000" lengthAdjust="spacingAndGlyphs"
text-anchor="start" opacity="0" stroke-opacity="0">File: handheld1_motion4sim_FO41AFC70E184.kicad_pcb</text>
<g class="stroked-text"><desc>File: handheld1_motion4sim_FO41AFC70E184.kicad_pcb</desc>
<path d="M-219.4442 -30.1996
L-219.9442 -30.1996
" />
<path d="M-219.9442 -29.4139
L-219.9442 -30.9139
" />
<path d="M-219.9442 -30.9139
L-219.2299 -30.9139
" />
<path d="M-218.6585 -29.4139
L-218.6585 -30.4139
" />
<path d="M-218.6585 -30.9139
L-218.7299 -30.8424
" />
<path d="M-218.7299 -30.8424
L-218.6585 -30.7710
" />
<path d="M-218.6585 -30.7710
L-218.5870 -30.8424
" />
<path d="M-218.5870 -30.8424
L-218.6585 -30.9139
" />
<path d="M-218.6585 -30.9139
L-218.6585 -30.7710
" />
<path d="M-217.7299 -29.4139
L-217.8727 -29.4853
" />
<path d="M-217.8727 -29.4853
L-217.9442 -29.6282
" />
<path d="M-217.9442 -29.6282
L-217.9442 -30.9139
" />
<path d="M-216.5870 -29.4853
L-216.7299 -29.4139
" />
<path d="M-216.7299 -29.4139
L-217.0156 -29.4139
" />
<path d="M-217.0156 -29.4139
L-217.1585 -29.4853
" />
<path d="M-217.1585 -29.4853
L-217.2299 -29.6282
" />
<path d="M-217.2299 -29.6282
L-217.2299 -30.1996
" />
<path d="M-217.2299 -30.1996
L-217.1585 -30.3424
" />
<path d="M-217.1585 -30.3424
L-217.0156 -30.4139
" />
<path d="M-217.0156 -30.4139
L-216.7299 -30.4139
" />
<path d="M-216.7299 -30.4139
L-216.5870 -30.3424
" />
<path d="M-216.5870 -30.3424
L-216.5156 -30.1996
" />
<path d="M-216.5156 -30.1996
L-216.5156 -30.0567
" />
<path d="M-216.5156 -30.0567
L-217.2299 -29.9139
" />
<path d="M-215.8727 -29.5567
L-215.8013 -29.4853
" />
<path d="M-215.8013 -29.4853
L-215.8727 -29.4139
" />
<path d="M-215.8727 -29.4139
L-215.9442 -29.4853
" />
<path d="M-215.9442 -29.4853
L-215.8727 -29.5567
" />
<path d="M-215.8727 -29.5567
L-215.8727 -29.4139
" />
<path d="M-215.8727 -30.3424
L-215.8013 -30.2710
" />
<path d="M-215.8013 -30.2710
L-215.8727 -30.1996
" />
<path d="M-215.8727 -30.1996
L-215.9442 -30.2710
" />
<path d="M-215.9442 -30.2710
L-215.8727 -30.3424
" />
<path d="M-215.8727 -30.3424
L-215.8727 -30.1996
" />
<path d="M-214.0156 -29.4139
L-214.0156 -30.9139
" />
<path d="M-213.3727 -29.4139
L-213.3727 -30.1996
" />
<path d="M-213.3727 -30.1996
L-213.4442 -30.3424
" />
<path d="M-213.4442 -30.3424
L-213.5870 -30.4139
" />
<path d="M-213.5870 -30.4139
L-213.8013 -30.4139
" />
<path d="M-213.8013 -30.4139
L-213.9442 -30.3424
" />
<path d="M-213.9442 -30.3424
L-214.0156 -30.2710
" />
<path d="M-212.0156 -29.4139
L-212.0156 -30.1996
" />
<path d="M-212.0156 -30.1996
L-212.0870 -30.3424
" />
<path d="M-212.0870 -30.3424
L-212.2299 -30.4139
" />
<path d="M-212.2299 -30.4139
L-212.5156 -30.4139
" />
<path d="M-212.5156 -30.4139
L-212.6585 -30.3424
" />
<path d="M-212.0156 -29.4853
L-212.1585 -29.4139
" />
<path d="M-212.1585 -29.4139
L-212.5156 -29.4139
" />
<path d="M-212.5156 -29.4139
L-212.6585 -29.4853
" />
<path d="M-212.6585 -29.4853
L-212.7299 -29.6282
" />
<path d="M-212.7299 -29.6282
L-212.7299 -29.7710
" />
<path d="M-212.7299 -29.7710
L-212.6585 -29.9139
" />
<path d="M-212.6585 -29.9139
L-212.5156 -29.9853
" />
<path d="M-212.5156 -29.9853
L-212.1585 -29.9853
" />
<path d="M-212.1585 -29.9853
L-212.0156 -30.0567
" />
<path d="M-211.3013 -30.4139
L-211.3013 -29.4139
" />
<path d="M-211.3013 -30.2710
L-211.2299 -30.3424
" />
<path d="M-211.2299 -30.3424
L-211.0870 -30.4139
" />
<path d="M-211.0870 -30.4139
L-210.8727 -30.4139
" />
<path d="M-210.8727 -30.4139
L-210.7299 -30.3424
" />
<path d="M-210.7299 -30.3424
L-210.6585 -30.1996
" />
<path d="M-210.6585 -30.1996
L-210.6585 -29.4139
" />
<path d="M-209.3013 -29.4139
L-209.3013 -30.9139
" />
<path d="M-209.3013 -29.4853
L-209.4442 -29.4139
" />
<path d="M-209.4442 -29.4139
L-209.7299 -29.4139
" />
<path d="M-209.7299 -29.4139
L-209.8727 -29.4853
" />
<path d="M-209.8727 -29.4853
L-209.9442 -29.5567
" />
<path d="M-209.9442 -29.5567
L-210.0156 -29.6996
" />
<path d="M-210.0156 -29.6996
L-210.0156 -30.1282
" />
<path d="M-210.0156 -30.1282
L-209.9442 -30.2710
" />
<path d="M-209.9442 -30.2710
L-209.8727 -30.3424
" />
<path d="M-209.8727 -30.3424
L-209.7299 -30.4139
" />
<path d="M-209.7299 -30.4139
L-209.4442 -30.4139
" />
<path d="M-209.4442 -30.4139
L-209.3013 -30.3424
" />
<path d="M-208.5870 -29.4139
L-208.5870 -30.9139
" />
<path d="M-207.9442 -29.4139
L-207.9442 -30.1996
" />
<path d="M-207.9442 -30.1996
L-208.0156 -30.3424
" />
<path d="M-208.0156 -30.3424
L-208.1585 -30.4139
" />
<path d="M-208.1585 -30.4139
L-208.3727 -30.4139
" />
<path d="M-208.3727 -30.4139
L-208.5156 -30.3424
" />
<path d="M-208.5156 -30.3424
L-208.5870 -30.2710
" />
<path d="M-206.6585 -29.4853
L-206.8013 -29.4139
" />
<path d="M-206.8013 -29.4139
L-207.0870 -29.4139
" />
<path d="M-207.0870 -29.4139
L-207.2299 -29.4853
" />
<path d="M-207.2299 -29.4853
L-207.3013 -29.6282
" />
<path d="M-207.3013 -29.6282
L-207.3013 -30.1996
" />
<path d="M-207.3013 -30.1996
L-207.2299 -30.3424
" />
<path d="M-207.2299 -30.3424
L-207.0870 -30.4139
" />
<path d="M-207.0870 -30.4139
L-206.8013 -30.4139
" />
<path d="M-206.8013 -30.4139
L-206.6585 -30.3424
" />
<path d="M-206.6585 -30.3424
L-206.5870 -30.1996
" />
<path d="M-206.5870 -30.1996
L-206.5870 -30.0567
" />
<path d="M-206.5870 -30.0567
L-207.3013 -29.9139
" />
<path d="M-205.7299 -29.4139
L-205.8727 -29.4853
" />
<path d="M-205.8727 -29.4853
L-205.9442 -29.6282
" />
<path d="M-205.9442 -29.6282
L-205.9442 -30.9139
" />
<path d="M-204.5156 -29.4139
L-204.5156 -30.9139
" />
<path d="M-204.5156 -29.4853
L-204.6585 -29.4139
" />
<path d="M-204.6585 -29.4139
L-204.9442 -29.4139
" />
<path d="M-204.9442 -29.4139
L-205.0870 -29.4853
" />
<path d="M-205.0870 -29.4853
L-205.1585 -29.5567
" />
<path d="M-205.1585 -29.5567
L-205.2299 -29.6996
" />
<path d="M-205.2299 -29.6996
L-205.2299 -30.1282
" />
<path d="M-205.2299 -30.1282
L-205.1585 -30.2710
" />
<path d="M-205.1585 -30.2710
L-205.0870 -30.3424
" />
<path d="M-205.0870 -30.3424
L-204.9442 -30.4139
" />
<path d="M-204.9442 -30.4139
L-204.6585 -30.4139
" />
<path d="M-204.6585 -30.4139
L-204.5156 -30.3424
" />
<path d="M-203.0156 -29.4139
L-203.8727 -29.4139
" />
<path d="M-203.4442 -29.4139
L-203.4442 -30.9139
" />
<path d="M-203.4442 -30.9139
L-203.5870 -30.6996
" />
<path d="M-203.5870 -30.6996
L-203.7299 -30.5567
" />
<path d="M-203.7299 -30.5567
L-203.8727 -30.4853
" />
<path d="M-202.7299 -29.2710
L-201.5870 -29.2710
" />
<path d="M-201.2299 -29.4139
L-201.2299 -30.4139
" />
<path d="M-201.2299 -30.2710
L-201.1585 -30.3424
" />
<path d="M-201.1585 -30.3424
L-201.0156 -30.4139
" />
<path d="M-201.0156 -30.4139
L-200.8013 -30.4139
" />
<path d="M-200.8013 -30.4139
L-200.6585 -30.3424
" />
<path d="M-200.6585 -30.3424
L-200.5870 -30.1996
" />
<path d="M-200.5870 -30.1996
L-200.5870 -29.4139
" />
<path d="M-200.5870 -30.1996
L-200.5156 -30.3424
" />
<path d="M-200.5156 -30.3424
L-200.3727 -30.4139
" />
<path d="M-200.3727 -30.4139
L-200.1585 -30.4139
" />
<path d="M-200.1585 -30.4139
L-200.0156 -30.3424
" />
<path d="M-200.0156 -30.3424
L-199.9442 -30.1996
" />
<path d="M-199.9442 -30.1996
L-199.9442 -29.4139
" />
<path d="M-199.0156 -29.4139
L-199.1585 -29.4853
" />
<path d="M-199.1585 -29.4853
L-199.2299 -29.5567
" />
<path d="M-199.2299 -29.5567
L-199.3013 -29.6996
" />
<path d="M-199.3013 -29.6996
L-199.3013 -30.1282
" />
<path d="M-199.3013 -30.1282
L-199.2299 -30.2710
" />
<path d="M-199.2299 -30.2710
L-199.1585 -30.3424
" />
<path d="M-199.1585 -30.3424
L-199.0156 -30.4139
" />
<path d="M-199.0156 -30.4139
L-198.8013 -30.4139
" />
<path d="M-198.8013 -30.4139
L-198.6585 -30.3424
" />
<path d="M-198.6585 -30.3424
L-198.5870 -30.2710
" />
<path d="M-198.5870 -30.2710
L-198.5156 -30.1282
" />
<path d="M-198.5156 -30.1282
L-198.5156 -29.6996
" />
<path d="M-198.5156 -29.6996
L-198.5870 -29.5567
" />
<path d="M-198.5870 -29.5567
L-198.6585 -29.4853
" />
<path d="M-198.6585 -29.4853
L-198.8013 -29.4139
" />
<path d="M-198.8013 -29.4139
L-199.0156 -29.4139
" />
<path d="M-198.0870 -30.4139
L-197.5156 -30.4139
" />
<path d="M-197.8727 -30.9139
L-197.8727 -29.6282
" />
<path d="M-197.8727 -29.6282
L-197.8013 -29.4853
" />
<path d="M-197.8013 -29.4853
L-197.6585 -29.4139
" />
<path d="M-197.6585 -29.4139
L-197.5156 -29.4139
" />
<path d="M-197.0156 -29.4139
L-197.0156 -30.4139
" />
<path d="M-197.0156 -30.9139
L-197.0870 -30.8424
" />
<path d="M-197.0870 -30.8424
L-197.0156 -30.7710
" />
<path d="M-197.0156 -30.7710
L-196.9442 -30.8424
" />
<path d="M-196.9442 -30.8424
L-197.0156 -30.9139
" />
<path d="M-197.0156 -30.9139
L-197.0156 -30.7710
" />
<path d="M-196.0870 -29.4139
L-196.2299 -29.4853
" />
<path d="M-196.2299 -29.4853
L-196.3013 -29.5567
" />
<path d="M-196.3013 -29.5567
L-196.3727 -29.6996
" />
<path d="M-196.3727 -29.6996
L-196.3727 -30.1282
" />
<path d="M-196.3727 -30.1282
L-196.3013 -30.2710
" />
<path d="M-196.3013 -30.2710
L-196.2299 -30.3424
" />
<path d="M-196.2299 -30.3424
L-196.0870 -30.4139
" />
<path d="M-196.0870 -30.4139
L-195.8727 -30.4139
" />
<path d="M-195.8727 -30.4139
L-195.7299 -30.3424
" />
<path d="M-195.7299 -30.3424
L-195.6585 -30.2710
" />
<path d="M-195.6585 -30.2710
L-195.5870 -30.1282
" />
<path d="M-195.5870 -30.1282
L-195.5870 -29.6996
" />
<path d="M-195.5870 -29.6996
L-195.6585 -29.5567
" />
<path d="M-195.6585 -29.5567
L-195.7299 -29.4853
" />
<path d="M-195.7299 -29.4853
L-195.8727 -29.4139
" />
<path d="M-195.8727 -29.4139
L-196.0870 -29.4139
" />
<path d="M-194.9442 -30.4139
L-194.9442 -29.4139
" />
<path d="M-194.9442 -30.2710
L-194.8727 -30.3424
" />
<path d="M-194.8727 -30.3424
L-194.7299 -30.4139
" />
<path d="M-194.7299 -30.4139
L-194.5156 -30.4139
" />
<path d="M-194.5156 -30.4139
L-194.3727 -30.3424
" />
<path d="M-194.3727 -30.3424
L-194.3013 -30.1996
" />
<path d="M-194.3013 -30.1996
L-194.3013 -29.4139
" />
<path d="M-192.9442 -30.4139
L-192.9442 -29.4139
" />
<path d="M-193.3013 -30.9853
L-193.6585 -29.9139
" />
<path d="M-193.6585 -29.9139
L-192.7299 -29.9139
" />
<path d="M-192.2299 -29.4853
L-192.0870 -29.4139
" />
<path d="M-192.0870 -29.4139
L-191.8013 -29.4139
" />
<path d="M-191.8013 -29.4139
L-191.6585 -29.4853
" />
<path d="M-191.6585 -29.4853
L-191.5870 -29.6282
" />
<path d="M-191.5870 -29.6282
L-191.5870 -29.6996
" />
<path d="M-191.5870 -29.6996
L-191.6585 -29.8424
" />
<path d="M-191.6585 -29.8424
L-191.8013 -29.9139
" />
<path d="M-191.8013 -29.9139
L-192.0156 -29.9139
" />
<path d="M-192.0156 -29.9139
L-192.1585 -29.9853
" />
<path d="M-192.1585 -29.9853
L-192.2299 -30.1282
" />
<path d="M-192.2299 -30.1282
L-192.2299 -30.1996
" />
<path d="M-192.2299 -30.1996
L-192.1585 -30.3424
" />
<path d="M-192.1585 -30.3424
L-192.0156 -30.4139
" />
<path d="M-192.0156 -30.4139
L-191.8013 -30.4139
" />
<path d="M-191.8013 -30.4139
L-191.6585 -30.3424
" />
<path d="M-190.9442 -29.4139
L-190.9442 -30.4139
" />
<path d="M-190.9442 -30.9139
L-191.0156 -30.8424
" />
<path d="M-191.0156 -30.8424
L-190.9442 -30.7710
" />
<path d="M-190.9442 -30.7710
L-190.8727 -30.8424
" />
<path d="M-190.8727 -30.8424
L-190.9442 -30.9139
" />
<path d="M-190.9442 -30.9139
L-190.9442 -30.7710
" />
<path d="M-190.2299 -29.4139
L-190.2299 -30.4139
" />
<path d="M-190.2299 -30.2710
L-190.1585 -30.3424
" />
<path d="M-190.1585 -30.3424
L-190.0156 -30.4139
" />
<path d="M-190.0156 -30.4139
L-189.8013 -30.4139
" />
<path d="M-189.8013 -30.4139
L-189.6585 -30.3424
" />
<path d="M-189.6585 -30.3424
L-189.5870 -30.1996
" />
<path d="M-189.5870 -30.1996
L-189.5870 -29.4139
" />
<path d="M-189.5870 -30.1996
L-189.5156 -30.3424
" />
<path d="M-189.5156 -30.3424
L-189.3727 -30.4139
" />
<path d="M-189.3727 -30.4139
L-189.1585 -30.4139
" />
<path d="M-189.1585 -30.4139
L-189.0156 -30.3424
" />
<path d="M-189.0156 -30.3424
L-188.9442 -30.1996
" />
<path d="M-188.9442 -30.1996
L-188.9442 -29.4139
" />
<path d="M-188.5870 -29.2710
L-187.4442 -29.2710
" />
<path d="M-186.5870 -30.1996
L-187.0870 -30.1996
" />
<path d="M-187.0870 -29.4139
L-187.0870 -30.9139
" />
<path d="M-187.0870 -30.9139
L-186.3727 -30.9139
" />
<path d="M-185.5156 -30.9139
L-185.2299 -30.9139
" />
<path d="M-185.2299 -30.9139
L-185.0870 -30.8424
" />
<path d="M-185.0870 -30.8424
L-184.9442 -30.6996
" />
<path d="M-184.9442 -30.6996
L-184.8727 -30.4139
" />
<path d="M-184.8727 -30.4139
L-184.8727 -29.9139
" />
<path d="M-184.8727 -29.9139
L-184.9442 -29.6282
" />
<path d="M-184.9442 -29.6282
L-185.0870 -29.4853
" />
<path d="M-185.0870 -29.4853
L-185.2299 -29.4139
" />
<path d="M-185.2299 -29.4139
L-185.5156 -29.4139
" />
<path d="M-185.5156 -29.4139
L-185.6585 -29.4853
" />
<path d="M-185.6585 -29.4853
L-185.8013 -29.6282
" />
<path d="M-185.8013 -29.6282
L-185.8727 -29.9139
" />
<path d="M-185.8727 -29.9139
L-185.8727 -30.4139
" />
<path d="M-185.8727 -30.4139
L-185.8013 -30.6996
" />
<path d="M-185.8013 -30.6996
L-185.6585 -30.8424
" />
<path d="M-185.6585 -30.8424
L-185.5156 -30.9139
" />
<path d="M-183.5870 -30.4139
L-183.5870 -29.4139
" />
<path d="M-183.9442 -30.9853
L-184.3013 -29.9139
" />
<path d="M-184.3013 -29.9139
L-183.3727 -29.9139
" />
<path d="M-182.0156 -29.4139
L-182.8727 -29.4139
" />
<path d="M-182.4442 -29.4139
L-182.4442 -30.9139
" />
<path d="M-182.4442 -30.9139
L-182.5870 -30.6996
" />
<path d="M-182.5870 -30.6996
L-182.7299 -30.5567
" />
<path d="M-182.7299 -30.5567
L-182.8727 -30.4853
" />
<path d="M-181.4442 -29.8424
L-180.7299 -29.8424
" />
<path d="M-181.5870 -29.4139
L-181.0870 -30.9139
" />
<path d="M-181.0870 -30.9139
L-180.5870 -29.4139
" />
<path d="M-179.5870 -30.1996
L-180.0870 -30.1996
" />
<path d="M-180.0870 -29.4139
L-180.0870 -30.9139
" />
<path d="M-180.0870 -30.9139
L-179.3727 -30.9139
" />
<path d="M-177.9442 -29.5567
L-178.0156 -29.4853
" />
<path d="M-178.0156 -29.4853
L-178.2299 -29.4139
" />
<path d="M-178.2299 -29.4139
L-178.3727 -29.4139
" />
<path d="M-178.3727 -29.4139
L-178.5870 -29.4853
" />
<path d="M-178.5870 -29.4853
L-178.7299 -29.6282
" />
<path d="M-178.7299 -29.6282
L-178.8013 -29.7710
" />
<path d="M-178.8013 -29.7710
L-178.8727 -30.0567
" />
<path d="M-178.8727 -30.0567
L-178.8727 -30.2710
" />
<path d="M-178.8727 -30.2710
L-178.8013 -30.5567
" />
<path d="M-178.8013 -30.5567
L-178.7299 -30.6996
" />
<path d="M-178.7299 -30.6996
L-178.5870 -30.8424
" />
<path d="M-178.5870 -30.8424
L-178.3727 -30.9139
" />
<path d="M-178.3727 -30.9139
L-178.2299 -30.9139
" />
<path d="M-178.2299 -30.9139
L-178.0156 -30.8424
" />
<path d="M-178.0156 -30.8424
L-177.9442 -30.7710
" />
<path d="M-177.4442 -30.9139
L-176.4442 -30.9139
" />
<path d="M-176.4442 -30.9139
L-177.0870 -29.4139
" />
<path d="M-175.5870 -30.9139
L-175.4442 -30.9139
" />
<path d="M-175.4442 -30.9139
L-175.3013 -30.8424
" />
<path d="M-175.3013 -30.8424
L-175.2299 -30.7710
" />
<path d="M-175.2299 -30.7710
L-175.1585 -30.6282
" />
<path d="M-175.1585 -30.6282
L-175.0870 -30.3424
" />
<path d="M-175.0870 -30.3424
L-175.0870 -29.9853
" />
<path d="M-175.0870 -29.9853
L-175.1585 -29.6996
" />
<path d="M-175.1585 -29.6996
L-175.2299 -29.5567
" />
<path d="M-175.2299 -29.5567
L-175.3013 -29.4853
" />
<path d="M-175.3013 -29.4853
L-175.4442 -29.4139
" />
<path d="M-175.4442 -29.4139
L-175.5870 -29.4139
" />
<path d="M-175.5870 -29.4139
L-175.7299 -29.4853
" />
<path d="M-175.7299 -29.4853
L-175.8013 -29.5567
" />
<path d="M-175.8013 -29.5567
L-175.8727 -29.6996
" />
<path d="M-175.8727 -29.6996
L-175.9442 -29.9853
" />
<path d="M-175.9442 -29.9853
L-175.9442 -30.3424
" />
<path d="M-175.9442 -30.3424
L-175.8727 -30.6282
" />
<path d="M-175.8727 -30.6282
L-175.8013 -30.7710
" />
<path d="M-175.8013 -30.7710
L-175.7299 -30.8424
" />
<path d="M-175.7299 -30.8424
L-175.5870 -30.9139
" />
<path d="M-174.4442 -30.1996
L-173.9442 -30.1996
" />
<path d="M-173.7299 -29.4139
L-174.4442 -29.4139
" />
<path d="M-174.4442 -29.4139
L-174.4442 -30.9139
" />
<path d="M-174.4442 -30.9139
L-173.7299 -30.9139
" />
<path d="M-172.3013 -29.4139
L-173.1585 -29.4139
" />
<path d="M-172.7299 -29.4139
L-172.7299 -30.9139
" />
<path d="M-172.7299 -30.9139
L-172.8727 -30.6996
" />
<path d="M-172.8727 -30.6996
L-173.0156 -30.5567
" />
<path d="M-173.0156 -30.5567
L-173.1585 -30.4853
" />
<path d="M-171.4442 -30.2710
L-171.5870 -30.3424
" />
<path d="M-171.5870 -30.3424
L-171.6585 -30.4139
" />
<path d="M-171.6585 -30.4139
L-171.7299 -30.5567
" />
<path d="M-171.7299 -30.5567
L-171.7299 -30.6282
" />
<path d="M-171.7299 -30.6282
L-171.6585 -30.7710
" />
<path d="M-171.6585 -30.7710
L-171.5870 -30.8424
" />
<path d="M-171.5870 -30.8424
L-171.4442 -30.9139
" />
<path d="M-171.4442 -30.9139
L-171.1585 -30.9139
" />
<path d="M-171.1585 -30.9139
L-171.0156 -30.8424
" />
<path d="M-171.0156 -30.8424
L-170.9442 -30.7710
" />
<path d="M-170.9442 -30.7710
L-170.8727 -30.6282
" />
<path d="M-170.8727 -30.6282
L-170.8727 -30.5567
" />
<path d="M-170.8727 -30.5567
L-170.9442 -30.4139
" />
<path d="M-170.9442 -30.4139
L-171.0156 -30.3424
" />
<path d="M-171.0156 -30.3424
L-171.1585 -30.2710
" />
<path d="M-171.1585 -30.2710
L-171.4442 -30.2710
" />
<path d="M-171.4442 -30.2710
L-171.5870 -30.1996
" />
<path d="M-171.5870 -30.1996
L-171.6585 -30.1282
" />
<path d="M-171.6585 -30.1282
L-171.7299 -29.9853
" />
<path d="M-171.7299 -29.9853
L-171.7299 -29.6996
" />
<path d="M-171.7299 -29.6996
L-171.6585 -29.5567
" />
<path d="M-171.6585 -29.5567
L-171.5870 -29.4853
" />
<path d="M-171.5870 -29.4853
L-171.4442 -29.4139
" />
<path d="M-171.4442 -29.4139
L-171.1585 -29.4139
" />
<path d="M-171.1585 -29.4139
L-171.0156 -29.4853
" />
<path d="M-171.0156 -29.4853
L-170.9442 -29.5567
" />
<path d="M-170.9442 -29.5567
L-170.8727 -29.6996
" />
<path d="M-170.8727 -29.6996
L-170.8727 -29.9853
" />
<path d="M-170.8727 -29.9853
L-170.9442 -30.1282
" />
<path d="M-170.9442 -30.1282
L-171.0156 -30.1996
" />
<path d="M-171.0156 -30.1996
L-171.1585 -30.2710
" />
<path d="M-169.5870 -30.4139
L-169.5870 -29.4139
" />
<path d="M-169.9442 -30.9853
L-170.3013 -29.9139
" />
<path d="M-170.3013 -29.9139
L-169.3727 -29.9139
" />
<path d="M-168.8013 -29.5567
L-168.7299 -29.4853
" />
<path d="M-168.7299 -29.4853
L-168.8013 -29.4139
" />
<path d="M-168.8013 -29.4139
L-168.8727 -29.4853
" />
<path d="M-168.8727 -29.4853
L-168.8013 -29.5567
" />
<path d="M-168.8013 -29.5567
L-168.8013 -29.4139
" />
<path d="M-168.0870 -29.4139
L-168.0870 -30.9139
" />
<path d="M-167.9442 -29.9853
L-167.5156 -29.4139
" />
<path d="M-167.5156 -30.4139
L-168.0870 -29.8424
" />
<path d="M-166.8727 -29.4139
L-166.8727 -30.4139
" />
<path d="M-166.8727 -30.9139
L-166.9442 -30.8424
" />
<path d="M-166.9442 -30.8424
L-166.8727 -30.7710
" />
<path d="M-166.8727 -30.7710
L-166.8013 -30.8424
" />
<path d="M-166.8013 -30.8424
L-166.8727 -30.9139
" />
<path d="M-166.8727 -30.9139
L-166.8727 -30.7710
" />
<path d="M-165.5156 -29.4853
L-165.6585 -29.4139
" />
<path d="M-165.6585 -29.4139
L-165.9442 -29.4139
" />
<path d="M-165.9442 -29.4139
L-166.0870 -29.4853
" />
<path d="M-166.0870 -29.4853
L-166.1585 -29.5567
" />
<path d="M-166.1585 -29.5567
L-166.2299 -29.6996
" />
<path d="M-166.2299 -29.6996
L-166.2299 -30.1282
" />
<path d="M-166.2299 -30.1282
L-166.1585 -30.2710
" />
<path d="M-166.1585 -30.2710
L-166.0870 -30.3424
" />
<path d="M-166.0870 -30.3424
L-165.9442 -30.4139
" />
<path d="M-165.9442 -30.4139
L-165.6585 -30.4139
" />
<path d="M-165.6585 -30.4139
L-165.5156 -30.3424
" />
<path d="M-164.2299 -29.4139
L-164.2299 -30.1996
" />
<path d="M-164.2299 -30.1996
L-164.3013 -30.3424
" />
<path d="M-164.3013 -30.3424
L-164.4442 -30.4139
" />
<path d="M-164.4442 -30.4139
L-164.7299 -30.4139
" />
<path d="M-164.7299 -30.4139
L-164.8727 -30.3424
" />
<path d="M-164.2299 -29.4853
L-164.3727 -29.4139
" />
<path d="M-164.3727 -29.4139
L-164.7299 -29.4139
" />
<path d="M-164.7299 -29.4139
L-164.8727 -29.4853
" />
<path d="M-164.8727 -29.4853
L-164.9442 -29.6282
" />
<path d="M-164.9442 -29.6282
L-164.9442 -29.7710
" />
<path d="M-164.9442 -29.7710
L-164.8727 -29.9139
" />
<path d="M-164.8727 -29.9139
L-164.7299 -29.9853
" />
<path d="M-164.7299 -29.9853
L-164.3727 -29.9853
" />
<path d="M-164.3727 -29.9853
L-164.2299 -30.0567
" />
<path d="M-162.8727 -29.4139
L-162.8727 -30.9139
" />
<path d="M-162.8727 -29.4853
L-163.0156 -29.4139
" />
<path d="M-163.0156 -29.4139
L-163.3013 -29.4139
" />
<path d="M-163.3013 -29.4139
L-163.4442 -29.4853
" />
<path d="M-163.4442 -29.4853
L-163.5156 -29.5567
" />
<path d="M-163.5156 -29.5567
L-163.5870 -29.6996
" />
<path d="M-163.5870 -29.6996
L-163.5870 -30.1282
" />
<path d="M-163.5870 -30.1282
L-163.5156 -30.2710
" />
<path d="M-163.5156 -30.2710
L-163.4442 -30.3424
" />
<path d="M-163.4442 -30.3424
L-163.3013 -30.4139
" />
<path d="M-163.3013 -30.4139
L-163.0156 -30.4139
" />
<path d="M-163.0156 -30.4139
L-162.8727 -30.3424
" />
<path d="M-162.5156 -29.2710
L-161.3727 -29.2710
" />
<path d="M-161.0156 -30.4139
L-161.0156 -28.9139
" />
<path d="M-161.0156 -30.3424
L-160.8727 -30.4139
" />
<path d="M-160.8727 -30.4139
L-160.5870 -30.4139
" />
<path d="M-160.5870 -30.4139
L-160.4442 -30.3424
" />
<path d="M-160.4442 -30.3424
L-160.3727 -30.2710
" />
<path d="M-160.3727 -30.2710
L-160.3013 -30.1282
" />
<path d="M-160.3013 -30.1282
L-160.3013 -29.6996
" />
<path d="M-160.3013 -29.6996
L-160.3727 -29.5567
" />
<path d="M-160.3727 -29.5567
L-160.4442 -29.4853
" />
<path d="M-160.4442 -29.4853
L-160.5870 -29.4139
" />
<path d="M-160.5870 -29.4139
L-160.8727 -29.4139
" />
<path d="M-160.8727 -29.4139
L-161.0156 -29.4853
" />
<path d="M-159.0156 -29.4853
L-159.1585 -29.4139
" />
<path d="M-159.1585 -29.4139
L-159.4442 -29.4139
" />
<path d="M-159.4442 -29.4139
L-159.5870 -29.4853
" />
<path d="M-159.5870 -29.4853
L-159.6585 -29.5567
" />
<path d="M-159.6585 -29.5567
L-159.7299 -29.6996
" />
<path d="M-159.7299 -29.6996
L-159.7299 -30.1282
" />
<path d="M-159.7299 -30.1282
L-159.6585 -30.2710
" />
<path d="M-159.6585 -30.2710
L-159.5870 -30.3424
" />
<path d="M-159.5870 -30.3424
L-159.4442 -30.4139
" />
<path d="M-159.4442 -30.4139
L-159.1585 -30.4139
" />
<path d="M-159.1585 -30.4139
L-159.0156 -30.3424
" />
<path d="M-158.3727 -29.4139
L-158.3727 -30.9139
" />
<path d="M-158.3727 -30.3424
L-158.2299 -30.4139
" />
<path d="M-158.2299 -30.4139
L-157.9442 -30.4139
" />
<path d="M-157.9442 -30.4139
L-157.8013 -30.3424
" />
<path d="M-157.8013 -30.3424
L-157.7299 -30.2710
" />
<path d="M-157.7299 -30.2710
L-157.6585 -30.1282
" />
<path d="M-157.6585 -30.1282
L-157.6585 -29.6996
" />
<path d="M-157.6585 -29.6996
L-157.7299 -29.5567
" />
<path d="M-157.7299 -29.5567
L-157.8013 -29.4853
" />
<path d="M-157.8013 -29.4853
L-157.9442 -29.4139
" />
<path d="M-157.9442 -29.4139
L-158.2299 -29.4139
" />
<path d="M-158.2299 -29.4139
L-158.3727 -29.4853
" />
</g><path d="M-221.4000 -34.3000
L-113.4000 -34.3000
" />
<text x="-220.4000" y="-32.0500"
textLength="8.2214" font-size="2.0000" lengthAdjust="spacingAndGlyphs"
text-anchor="start" opacity="0" stroke-opacity="0">Sheet: </text>
<g class="stroked-text"><desc>Sheet: </desc>
<path d="M-220.0156 -32.1853
L-219.8013 -32.1139
" />
<path d="M-219.8013 -32.1139
L-219.4442 -32.1139
" />
<path d="M-219.4442 -32.1139
L-219.3013 -32.1853
" />
<path d="M-219.3013 -32.1853
L-219.2299 -32.2567
" />
<path d="M-219.2299 -32.2567
L-219.1585 -32.3996
" />
<path d="M-219.1585 -32.3996
L-219.1585 -32.5424
" />
<path d="M-219.1585 -32.5424
L-219.2299 -32.6853
" />
<path d="M-219.2299 -32.6853
L-219.3013 -32.7567
" />
<path d="M-219.3013 -32.7567
L-219.4442 -32.8282
" />
<path d="M-219.4442 -32.8282
L-219.7299 -32.8996
" />
<path d="M-219.7299 -32.8996
L-219.8727 -32.9710
" />
<path d="M-219.8727 -32.9710
L-219.9442 -33.0424
" />
<path d="M-219.9442 -33.0424
L-220.0156 -33.1853
" />
<path d="M-220.0156 -33.1853
L-220.0156 -33.3282
" />
<path d="M-220.0156 -33.3282
L-219.9442 -33.4710
" />
<path d="M-219.9442 -33.4710
L-219.8727 -33.5424
" />
<path d="M-219.8727 -33.5424
L-219.7299 -33.6139
" />
<path d="M-219.7299 -33.6139
L-219.3727 -33.6139
" />
<path d="M-219.3727 -33.6139
L-219.1585 -33.5424
" />
<path d="M-218.5156 -32.1139
L-218.5156 -33.6139
" />
<path d="M-217.8727 -32.1139
L-217.8727 -32.8996
" />
<path d="M-217.8727 -32.8996
L-217.9442 -33.0424
" />
<path d="M-217.9442 -33.0424
L-218.0870 -33.1139
" />
<path d="M-218.0870 -33.1139
L-218.3013 -33.1139
" />
<path d="M-218.3013 -33.1139
L-218.4442 -33.0424
" />
<path d="M-218.4442 -33.0424
L-218.5156 -32.9710
" />
<path d="M-216.5870 -32.1853
L-216.7299 -32.1139
" />
<path d="M-216.7299 -32.1139
L-217.0156 -32.1139
" />
<path d="M-217.0156 -32.1139
L-217.1585 -32.1853
" />
<path d="M-217.1585 -32.1853
L-217.2299 -32.3282
" />
<path d="M-217.2299 -32.3282
L-217.2299 -32.8996
" />
<path d="M-217.2299 -32.8996
L-217.1585 -33.0424
" />
<path d="M-217.1585 -33.0424
L-217.0156 -33.1139
" />
<path d="M-217.0156 -33.1139
L-216.7299 -33.1139
" />
<path d="M-216.7299 -33.1139
L-216.5870 -33.0424
" />
<path d="M-216.5870 -33.0424
L-216.5156 -32.8996
" />
<path d="M-216.5156 -32.8996
L-216.5156 -32.7567
" />
<path d="M-216.5156 -32.7567
L-217.2299 -32.6139
" />
<path d="M-215.3013 -32.1853
L-215.4442 -32.1139
" />
<path d="M-215.4442 -32.1139
L-215.7299 -32.1139
" />
<path d="M-215.7299 -32.1139
L-215.8727 -32.1853
" />
<path d="M-215.8727 -32.1853
L-215.9442 -32.3282
" />
<path d="M-215.9442 -32.3282
L-215.9442 -32.8996
" />
<path d="M-215.9442 -32.8996
L-215.8727 -33.0424
" />
<path d="M-215.8727 -33.0424
L-215.7299 -33.1139
" />
<path d="M-215.7299 -33.1139
L-215.4442 -33.1139
" />
<path d="M-215.4442 -33.1139
L-215.3013 -33.0424
" />
<path d="M-215.3013 -33.0424
L-215.2299 -32.8996
" />
<path d="M-215.2299 -32.8996
L-215.2299 -32.7567
" />
<path d="M-215.2299 -32.7567
L-215.9442 -32.6139
" />
<path d="M-214.8013 -33.1139
L-214.2299 -33.1139
" />
<path d="M-214.5870 -33.6139
L-214.5870 -32.3282
" />
<path d="M-214.5870 -32.3282
L-214.5156 -32.1853
" />
<path d="M-214.5156 -32.1853
L-214.3727 -32.1139
" />
<path d="M-214.3727 -32.1139
L-214.2299 -32.1139
" />
<path d="M-213.7299 -32.2567
L-213.6585 -32.1853
" />
<path d="M-213.6585 -32.1853
L-213.7299 -32.1139
" />
<path d="M-213.7299 -32.1139
L-213.8013 -32.1853
" />
<path d="M-213.8013 -32.1853
L-213.7299 -32.2567
" />
<path d="M-213.7299 -32.2567
L-213.7299 -32.1139
" />
<path d="M-213.7299 -33.0424
L-213.6585 -32.9710
" />
<path d="M-213.6585 -32.9710
L-213.7299 -32.8996
" />
<path d="M-213.7299 -32.8996
L-213.8013 -32.9710
" />
<path d="M-213.8013 -32.9710
L-213.7299 -33.0424
" />
<path d="M-213.7299 -33.0424
L-213.7299 -32.8996
" />
</g></g>
<g style="fill:none; 
stroke:#C872AB; stroke-width:0.3000; stroke-opacity:1; 
stroke-linecap:round; stroke-linejoin:round;">
<text x="-220.4000" y="-35.0500"
textLength="0.9000" font-size="2.0000" lengthAdjust="spacingAndGlyphs"
text-anchor="start" opacity="0" stroke-opacity="0"></text>
<g class="stroked-text"><desc></desc>
</g></g>
<g style="fill:none; 
stroke:#C872AB; stroke-width:0.1500; stroke-opacity:1; 
stroke-linecap:round; stroke-linejoin:round;">
<text x="-220.4000" y="-38.0500"
textLength="0.4500" font-size="2.0000" lengthAdjust="spacingAndGlyphs"
text-anchor="start" opacity="0" stroke-opacity="0"></text>
<g class="stroked-text"><desc></desc>
</g><text x="-220.4000" y="-41.0500"
textLength="0.4500" font-size="2.0000" lengthAdjust="spacingAndGlyphs"
text-anchor="start" opacity="0" stroke-opacity="0"></text>
<g class="stroked-text"><desc></desc>
</g><text x="-220.4000" y="-44.0500"
textLength="0.4500" font-size="2.0000" lengthAdjust="spacingAndGlyphs"
text-anchor="start" opacity="0" stroke-opacity="0"></text>
<g class="stroked-text"><desc></desc>
</g><text x="-220.4000" y="-47.0500"
textLength="0.4500" font-size="2.0000" lengthAdjust="spacingAndGlyphs"
text-anchor="start" opacity="0" stroke-opacity="0"></text>
<g class="stroked-text"><desc></desc>
</g><path d="M-201.4000 -24.3000
L-201.4000 -21.3000
" />
<path d="M-137.4000 -24.3000
L-137.4000 -17.8000
" />
<path style="fill:#4D7FC4; fill-opacity:1.0000; stroke:none;fill-rule:evenodd;"
d="M 21.4974,9.4750
21.4784,9.3793
21.4242,9.2982
21.3431,9.2440
21.2474,9.2250
20.0474,9.2250
19.9517,9.2440
19.8706,9.2982
19.8164,9.3793
19.7974,9.4750
19.7974,10.9250
19.8164,11.0207
19.8706,11.1018
19.9517,11.1560
20.0474,11.1750
21.2474,11.1750
21.3431,11.1560
21.4242,11.1018
21.4784,11.0207
21.4974,10.9250
Z" /> 
</g>
<g style="fill:none; 
stroke:#4D7FC4; stroke-width:1.7000; stroke-opacity:1; 
stroke-linecap:round; stroke-linejoin:round;">
<path d="M18.1474 10.0750
L18.1474 10.3250
" />
<path d="M15.6474 10.0750
L15.6474 10.3250
" />
<path d="M13.1474 10.0750
L13.1474 10.3250
" />
<path d="M10.6474 10.0750
L10.6474 10.3250
" />
<path d="M8.1474 10.0750
L8.1474 10.3250
" />
<path style="fill:#4D7FC4; fill-opacity:1.0000; stroke:none;fill-rule:evenodd;"
d="M 18.5474,25.6750
18.5284,25.5793
18.4742,25.4982
18.3931,25.4440
18.2974,25.4250
17.0974,25.4250
17.0017,25.4440
16.9206,25.4982
16.8664,25.5793
16.8474,25.6750
16.8474,27.1250
16.8664,27.2207
16.9206,27.3018
17.0017,27.3560
17.0974,27.3750
18.2974,27.3750
18.3931,27.3560
18.4742,27.3018
18.5284,27.2207
18.5474,27.1250
Z" /> 
</g>
<g style="fill:none; 
stroke:#4D7FC4; stroke-width:1.7000; stroke-opacity:1; 
stroke-linecap:round; stroke-linejoin:round;">
<path d="M15.1974 26.2750
L15.1974 26.5250
" />
<path d="M12.6974 26.2750
L12.6974 26.5250
" />
</g>
<g style="fill:#4D7FC4; fill-opacity:1.0000; stroke:none;">
<circle cx="16.3974" cy="41.8000" r="0.3000" /> 
<circle cx="21.3974" cy="20.2000" r="0.3000" /> 
<circle cx="16.0974" cy="20.3000" r="0.3000" /> 
<circle cx="10.8974" cy="20.3000" r="0.3000" /> 
<circle cx="13.9974" cy="33.0000" r="0.3000" /> 
<circle cx="14.5974" cy="15.8000" r="0.3000" /> 
<circle cx="11.1974" cy="16.2000" r="0.3000" /> 
<circle cx="12.3974" cy="33.0000" r="0.3000" /> 
</g>
<g style="fill:none; 
stroke:#4D7FC4; stroke-width:0.3000; stroke-opacity:1; 
stroke-linecap:round; stroke-linejoin:round;">
<path d="M13.9974 16.4000
L14.5974 15.8000
" />
<path d="M13.9974 33.0000
L13.9974 16.4000
" />
<path d="M10.1974 29.2000
L12.3974 31.4000
" />
<path d="M10.5974 23.2000
L10.1974 23.6000
" />
<path d="M10.1974 28.8000
L10.1974 29.2000
" />
<path d="M12.3974 21.4000
L10.5974 23.2000
" />
<path d="M12.3974 31.4000
L12.3974 33.0000
" />
<path d="M12.3974 17.4000
L12.3974 19.4000
" />
<path d="M11.1974 16.2000
L12.3974 17.4000
" />
<path d="M12.3974 19.4000
L12.3974 21.4000
" />
<path d="M10.1974 23.6000
L10.1974 28.8000
" />
<path style="fill:#4D7FC4; fill-opacity:1.0000; stroke:none;fill-rule:evenodd;"
d="M 0.5549,0.5202
0.5091,0.5730
0.4979,0.6245
0.4979,59.3755
0.5176,59.4425
0.5704,59.4883
0.6219,59.4995
29.3729,59.4995
29.4399,59.4798
29.4857,59.4270
29.4969,59.3755
29.4969,28.3162
20.1479,28.3162
20.1479,28.4838
20.1152,28.6481
20.1152,28.6481
20.0511,28.8029
19.9580,28.9422
19.8396,29.0606
19.7469,29.1225
19.7003,29.1537
19.5455,29.2178
19.3812,29.2505
19.3812,29.2505
19.3812,29.2505
19.2136,29.2505
19.2136,29.2505
19.0493,29.2178
18.8945,29.1537
18.7552,29.0606
18.6368,28.9422
18.5437,28.8029
18.4796,28.6481
18.4469,28.4838
18.4469,28.3162
18.4796,28.1519
18.5257,28.0406
18.5332,27.9711
18.5019,27.9086
18.4418,27.8730
18.3985,27.8698
18.3474,27.8750
17.9474,27.8750
17.9474,27.8750
17.9474,26.8041
17.8807,26.8426
17.7599,26.8750
17.6349,26.8750
17.5141,26.8426
17.4474,26.8041
17.4474,27.8750
17.0474,27.8750
17.0474,27.8750
16.9447,27.8645
16.7783,27.8094
16.7783,27.8094
16.6291,27.7173
16.5051,27.5933
16.4096,27.4385
16.3576,27.3918
16.2887,27.3806
16.2246,27.4084
16.2164,27.4159
16.0772,27.5551
15.9052,27.6800
15.9052,27.6800
15.9052,27.6801
15.7158,27.7766
15.5136,27.8422
15.3037,27.8755
15.3037,27.8755
15.0911,27.8755
15.0911,27.8755
14.8812,27.8422
14.8102,27.8192
14.7404,27.8172
14.6805,27.8533
14.6497,27.9160
14.6479,27.9371
14.6479,32.4951
14.6676,32.5621
14.6688,32.5640
14.7068,32.6208
14.7068,32.6208
14.7671,32.7665
14.7671,32.7665
14.7979,32.9212
14.7979,33.0788
14.7671,33.2335
14.7671,33.2335
14.7068,33.3792
14.7068,33.3792
14.6192,33.5103
14.6192,33.5103
14.5077,33.6218
14.5077,33.6218
14.3766,33.7094
14.3766,33.7094
14.2309,33.7697
14.2309,33.7697
14.0762,33.8005
14.0762,33.8005
14.0762,33.8005
13.9186,33.8005
13.9186,33.8005
13.7639,33.7697
13.6182,33.7094
13.4871,33.6218
13.3756,33.5103
13.3005,33.3979
13.2469,33.3531
13.1776,33.3444
13.1145,33.3745
13.0943,33.3979
13.0192,33.5103
13.0192,33.5103
12.9077,33.6218
12.9077,33.6218
12.7766,33.7094
12.7766,33.7094
12.6309,33.7697
12.6309,33.7697
12.4762,33.8005
12.4762,33.8005
12.4762,33.8005
12.3186,33.8005
12.3186,33.8005
12.1639,33.7697
12.0182,33.7094
11.8871,33.6218
11.7756,33.5103
11.6880,33.3792
11.6277,33.2335
11.5969,33.0788
11.5969,32.9212
11.5969,32.9212
11.5969,32.9212
11.6277,32.7665
11.6277,32.7665
11.6880,32.6208
11.7260,32.5640
11.7469,32.4973
11.7469,32.4951
11.7469,31.7208
11.7272,31.6538
11.7106,31.6331
9.6921,29.6147
9.6921,29.6147
9.6209,29.5081
9.5719,29.3897
9.5551,29.3053
9.5469,29.2641
9.5469,28.7359
9.5469,23.5359
9.5469,23.5359
9.5719,23.4103
9.5719,23.4103
9.5719,23.4103
9.6209,23.2919
9.6209,23.2919
9.6209,23.2919
9.6395,23.2641
9.6395,23.2641
9.6921,23.1853
9.6921,23.1853
10.1827,22.6947
11.7106,21.1669
11.7441,21.1055
11.7469,21.0792
11.7469,17.7208
11.7272,17.6538
11.7106,17.6331
11.0945,17.0170
11.0331,16.9835
11.0311,16.9831
10.9639,16.9697
10.8182,16.9094
10.6871,16.8218
10.5756,16.7103
10.4880,16.5792
10.4277,16.4335
10.3969,16.2788
10.3969,16.1212
10.3969,16.1212
10.3969,16.1212
10.4277,15.9665
10.4277,15.9665
10.4277,15.9665
10.4574,15.8947
10.4880,15.8208
10.4880,15.8208
10.5756,15.6897
10.5756,15.6897
10.6871,15.5782
10.6871,15.5782
10.8182,15.4906
10.8182,15.4906
10.9639,15.4303
10.9639,15.4303
11.1186,15.3995
11.1186,15.3995
11.2762,15.3995
11.2762,15.3995
11.4309,15.4303
11.4309,15.4303
11.5766,15.4906
11.5766,15.4906
11.7077,15.5782
11.7077,15.5782
11.8192,15.6897
11.8192,15.6897
11.9068,15.8208
11.9068,15.8208
11.9671,15.9665
11.9671,15.9665
11.9805,16.0336
12.0129,16.0955
12.0144,16.0971
12.9027,16.9853
12.9027,16.9853
12.9128,17.0005
12.9128,17.0005
12.9128,17.0005
12.9739,17.0919
13.0229,17.2103
13.0229,17.2103
13.0479,17.3359
13.0479,17.3359
13.0479,19.3359
13.0479,21.4641
13.0479,21.4641
13.0479,21.4641
13.0229,21.5897
13.0229,21.5897
12.9739,21.7081
12.9027,21.8147
12.9027,21.8147
11.1027,23.6147
10.8842,23.8331
10.8507,23.8944
10.8479,23.9208
10.8479,28.8792
10.8676,28.9462
10.8842,28.9669
12.9027,30.9853
12.9027,30.9853
12.9739,31.0919
13.0229,31.2103
13.0229,31.2103
13.0479,31.3359
13.0479,32.4951
13.0532,32.5132
13.0536,32.5321
13.0671,32.5603
13.0676,32.5621
13.0688,32.5640
13.0943,32.6021
13.1479,32.6469
13.2172,32.6556
13.2803,32.6255
13.3005,32.6021
13.3260,32.5640
13.3469,32.4973
13.3469,32.4951
13.3469,27.9046
13.3272,27.8376
13.2744,27.7918
13.2053,27.7819
13.1846,27.7867
13.0136,27.8422
12.8037,27.8755
12.8037,27.8755
12.5911,27.8755
12.5911,27.8755
12.3812,27.8422
12.1790,27.7766
11.9896,27.6801
11.9431,27.6463
11.8176,27.5551
11.8176,27.5551
11.8176,27.5551
11.6673,27.4048
11.6673,27.4048
11.6673,27.4048
11.5424,27.2328
11.5424,27.2328
11.5423,27.2328
11.4458,27.0434
11.3802,26.8412
11.3469,26.6313
11.3469,26.1687
11.3802,25.9588
11.4458,25.7566
11.5423,25.5672
11.5424,25.5672
11.5424,25.5672
11.6673,25.3952
11.8176,25.2449
11.9896,25.1200
12.1790,25.0234
12.1790,25.0234
12.1790,25.0234
12.3812,24.9578
12.3812,24.9578
12.3812,24.9578
12.5569,24.9299
12.5911,24.9245
12.8037,24.9245
12.8378,24.9299
13.0136,24.9578
13.0136,24.9578
13.1846,25.0133
13.2544,25.0153
13.3143,24.9792
13.3451,24.9165
13.3469,24.8954
13.3469,16.3359
13.3719,16.2103
13.3719,16.2103
13.3719,16.2103
13.4209,16.0919
13.4209,16.0919
13.4209,16.0919
13.4921,15.9853
13.5110,15.9665
13.5827,15.8947
13.7804,15.6971
13.8139,15.6357
13.8143,15.6337
13.8277,15.5665
13.8591,15.4906
13.8880,15.4208
13.8880,15.4208
13.9756,15.2897
13.9756,15.2897
14.0871,15.1782
14.0871,15.1782
14.2182,15.0906
14.2182,15.0906
14.3639,15.0303
14.3639,15.0303
14.5186,14.9995
14.5186,14.9995
14.6762,14.9995
14.6762,14.9995
14.8309,15.0303
14.8309,15.0303
14.9766,15.0906
14.9766,15.0906
15.1077,15.1782
15.1077,15.1782
15.2192,15.2897
15.2192,15.2897
15.3068,15.4208
15.3068,15.4208
15.3671,15.5665
15.3671,15.5665
15.3979,15.7212
15.3979,15.8788
15.3671,16.0335
15.3671,16.0335
15.3068,16.1792
15.3068,16.1792
15.2192,16.3103
15.2192,16.3103
15.1077,16.4218
15.1077,16.4218
14.9766,16.5094
14.9766,16.5094
14.8892,16.5456
14.8309,16.5697
14.7638,16.5831
14.7471,16.5918
14.7286,16.5959
14.7035,16.6146
14.7019,16.6155
14.7003,16.6170
14.6842,16.6331
14.6507,16.6944
14.6479,16.7208
14.6479,24.8629
14.6676,24.9299
14.7204,24.9757
14.7895,24.9856
14.8102,24.9808
14.8812,24.9578
14.8812,24.9578
15.0569,24.9299
15.0911,24.9245
15.3037,24.9245
15.3378,24.9299
15.5136,24.9578
15.7158,25.0234
15.9052,25.1200
16.0772,25.2449
16.2164,25.3841
16.2777,25.4176
16.3474,25.4126
16.4033,25.3707
16.4096,25.3615
16.5051,25.2067
16.6291,25.0827
16.7783,24.9906
16.7783,24.9906
16.9447,24.9355
16.9447,24.9355
17.0474,24.9250
17.4474,24.9250
17.4474,25.9959
17.5141,25.9574
17.6349,25.9250
17.7599,25.9250
17.8807,25.9574
17.9474,25.9959
17.9474,24.9250
18.3474,24.9250
18.3474,24.9250
18.4501,24.9355
18.6165,24.9906
18.6165,24.9906
18.7657,25.0827
18.8897,25.2067
18.9818,25.3559
18.9818,25.3559
19.0369,25.5223
19.0369,25.5223
19.0474,25.6250
19.0474,26.1500
18.1015,26.1500
18.1400,26.2167
18.1724,26.3375
18.1724,26.4625
18.1400,26.5833
18.1015,26.6500
19.0474,26.6500
19.0474,27.1750
19.0369,27.2777
18.9950,27.4041
18.9926,27.4740
19.0283,27.5340
19.0909,27.5652
19.1369,27.5648
19.1887,27.5545
19.2136,27.5495
19.3812,27.5495
19.3812,27.5495
19.5455,27.5822
19.5455,27.5822
19.7003,27.6463
19.8396,27.7394
19.9580,27.8578
20.0511,27.9971
20.1152,28.1519
20.1152,28.1519
20.1479,28.3162
29.4969,28.3162
29.4969,12.1162
23.0979,12.1162
23.0979,12.2838
23.0652,12.4481
23.0652,12.4481
23.0011,12.6029
22.9080,12.7422
22.7896,12.8606
22.6969,12.9225
22.6503,12.9537
22.4955,13.0178
22.3312,13.0505
22.3312,13.0505
22.3312,13.0505
22.1636,13.0505
22.1636,13.0505
21.9993,13.0178
21.8445,12.9537
21.7052,12.8606
21.5868,12.7422
21.4937,12.6029
21.4296,12.4481
21.3969,12.2838
21.3969,12.1162
21.4296,11.9519
21.4755,11.8411
21.4830,11.7716
21.4517,11.7092
21.3916,11.6735
21.3483,11.6703
21.3451,11.6706
21.2974,11.6755
19.9974,11.6755
19.8946,11.6650
19.7281,11.6098
19.5787,11.5177
19.4547,11.3937
19.3626,11.2443
19.3626,11.2443
19.3592,11.2389
19.3073,11.1922
19.2383,11.1809
19.1742,11.2088
19.1660,11.2163
19.0272,11.3551
18.8552,11.4800
18.8552,11.4800
18.8552,11.4801
18.6658,11.5766
18.4636,11.6422
18.2537,11.6755
18.2537,11.6755
18.0411,11.6755
18.0411,11.6755
17.8312,11.6422
17.6290,11.5766
17.4396,11.4801
17.3931,11.4463
17.2676,11.3551
17.2676,11.3551
17.2676,11.3551
17.1173,11.2048
16.9977,11.0402
16.9424,10.9975
16.8728,10.9916
16.8110,11.0242
16.7971,11.0402
16.6948,11.1809
16.6775,11.2048
16.5272,11.3551
16.3552,11.4800
16.3552,11.4800
16.3552,11.4801
16.1658,11.5766
15.9636,11.6422
15.7537,11.6755
15.7537,11.6755
15.5411,11.6755
15.5411,11.6755
15.3312,11.6422
15.1290,11.5766
14.9396,11.4801
14.8931,11.4463
14.7676,11.3551
14.7676,11.3551
14.7676,11.3551
14.6173,11.2048
14.4977,11.0402
14.4424,10.9975
14.3728,10.9916
14.3110,11.0242
14.2971,11.0402
14.1948,11.1809
14.1775,11.2048
14.0272,11.3551
13.8552,11.4800
13.8552,11.4800
13.8552,11.4801
13.6658,11.5766
13.4636,11.6422
13.2537,11.6755
13.2537,11.6755
13.0411,11.6755
13.0411,11.6755
12.8312,11.6422
12.6290,11.5766
12.4396,11.4801
12.3931,11.4463
12.2676,11.3551
12.2676,11.3551
12.2676,11.3551
12.1173,11.2048
11.9977,11.0402
11.9424,10.9975
11.8728,10.9916
11.8110,11.0242
11.7971,11.0402
11.6948,11.1809
11.6775,11.2048
11.5272,11.3551
11.3552,11.4800
11.3552,11.4800
11.3552,11.4801
11.1658,11.5766
10.9636,11.6422
10.7537,11.6755
10.7537,11.6755
10.5411,11.6755
10.5411,11.6755
10.3312,11.6422
10.1290,11.5766
9.9396,11.4801
9.8931,11.4463
9.7676,11.3551
9.7676,11.3551
9.7676,11.3551
9.6173,11.2048
9.4974,11.0398
9.4421,10.9971
9.3725,10.9911
9.3107,11.0237
9.2968,11.0398
9.1771,11.2045
9.1771,11.2045
9.0269,11.3547
9.0269,11.3547
8.8550,11.4796
8.6656,11.5761
8.4635,11.6418
8.3974,11.6522
8.3974,10.6041
8.3307,10.6426
8.2099,10.6750
8.0849,10.6750
7.9641,10.6426
7.8974,10.6041
7.8974,11.6522
7.8313,11.6418
7.8313,11.6418
7.6292,11.5761
7.4398,11.4796
7.2679,11.3547
7.2679,11.3547
7.1177,11.2045
7.1177,11.2045
6.9928,11.0326
6.8963,10.8432
6.8306,10.6411
6.8306,10.6411
6.8004,10.4500
7.7433,10.4500
7.7048,10.3833
7.6724,10.2625
7.6724,10.1375
7.7048,10.0167
7.7433,9.9500
6.8004,9.9500
6.8306,9.7589
6.8306,9.7589
6.8963,9.5568
6.9928,9.3674
7.1177,9.1955
7.1177,9.1955
7.2679,9.0453
7.2679,9.0453
7.4398,8.9204
7.6292,8.8239
7.8313,8.7582
7.8974,8.7478
7.8974,9.7959
7.9641,9.7574
8.0849,9.7250
8.2099,9.7250
8.3307,9.7574
8.3974,9.7959
8.3974,8.7478
8.3974,8.7478
8.4635,8.7582
8.6656,8.8239
8.8550,8.9204
9.0269,9.0453
9.0269,9.0453
9.1771,9.1955
9.1771,9.1955
9.2968,9.3602
9.3521,9.4029
9.4217,9.4089
9.4835,9.3763
9.4974,9.3602
9.6173,9.1952
9.6173,9.1952
9.7676,9.0449
9.9396,8.9200
10.1290,8.8234
10.1290,8.8234
10.1290,8.8234
10.3312,8.7578
10.3312,8.7578
10.3312,8.7578
10.4924,8.7322
10.5411,8.7245
10.7537,8.7245
10.8024,8.7322
10.9636,8.7578
11.1658,8.8234
11.3552,8.9200
11.5272,9.0449
11.6775,9.1952
11.6775,9.1952
11.7971,9.3598
11.8524,9.4025
11.9220,9.4084
11.9838,9.3758
11.9977,9.3598
12.1173,9.1952
12.1173,9.1952
12.2676,9.0449
12.4396,8.9200
12.6290,8.8234
12.6290,8.8234
12.6290,8.8234
12.8312,8.7578
12.8312,8.7578
12.8312,8.7578
12.9924,8.7322
13.0411,8.7245
13.2537,8.7245
13.3024,8.7322
13.4636,8.7578
13.6658,8.8234
13.8552,8.9200
14.0272,9.0449
14.1775,9.1952
14.1775,9.1952
14.2971,9.3598
14.3524,9.4025
14.4220,9.4084
14.4838,9.3758
14.4977,9.3598
14.6173,9.1952
14.6173,9.1952
14.7676,9.0449
14.9396,8.9200
15.1290,8.8234
15.1290,8.8234
15.1290,8.8234
15.3312,8.7578
15.3312,8.7578
15.3312,8.7578
15.4924,8.7322
15.5411,8.7245
15.7537,8.7245
15.8024,8.7322
15.9636,8.7578
16.1658,8.8234
16.3552,8.9200
16.5272,9.0449
16.6775,9.1952
16.6775,9.1952
16.7971,9.3598
16.8524,9.4025
16.9220,9.4084
16.9838,9.3758
16.9977,9.3598
17.1173,9.1952
17.1173,9.1952
17.2676,9.0449
17.4396,8.9200
17.6290,8.8234
17.6290,8.8234
17.6290,8.8234
17.8312,8.7578
17.8312,8.7578
17.8312,8.7578
17.9924,8.7322
18.0411,8.7245
18.2537,8.7245
18.3024,8.7322
18.4636,8.7578
18.6658,8.8234
18.8552,8.9200
19.0272,9.0449
19.1660,9.1837
19.2273,9.2172
19.2970,9.2122
19.3529,9.1703
19.3592,9.1611
19.4547,9.0063
19.5787,8.8823
19.5787,8.8823
19.7281,8.7902
19.8946,8.7350
19.8946,8.7350
19.9974,8.7245
21.2974,8.7245
21.2974,8.7245
21.4002,8.7350
21.4002,8.7350
21.5667,8.7902
21.5667,8.7902
21.7161,8.8823
21.8401,9.0063
21.9322,9.1557
21.9322,9.1557
21.9371,9.1703
21.9874,9.3222
21.9874,9.3222
21.9874,9.3222
21.9979,9.4250
21.9979,10.9750
21.9979,10.9750
21.9874,11.0778
21.9874,11.0778
21.9456,11.2040
21.9432,11.2739
21.9789,11.3339
22.0414,11.3651
22.0875,11.3646
22.1394,11.3543
22.1636,11.3495
22.3312,11.3495
22.3312,11.3495
22.4955,11.3822
22.4955,11.3822
22.6503,11.4463
22.7896,11.5394
22.9080,11.6578
23.0011,11.7971
23.0652,11.9519
23.0652,11.9519
23.0979,12.1162
29.4969,12.1162
29.4969,0.6245
29.4772,0.5575
29.4244,0.5117
29.3729,0.5005
0.6219,0.5005
Z" /> 
</g>
<g style="fill:#02FFEE; fill-opacity:0.4000; stroke:none;">
<circle cx="22.2474" cy="12.2000" r="0.6000" /> 
<path style="fill:#02FFEE; fill-opacity:0.4000; stroke:none;fill-rule:evenodd;"
d="M 21.4974,9.4750
21.4784,9.3793
21.4242,9.2982
21.3431,9.2440
21.2474,9.2250
20.0474,9.2250
19.9517,9.2440
19.8706,9.2982
19.8164,9.3793
19.7974,9.4750
19.7974,10.9250
19.8164,11.0207
19.8706,11.1018
19.9517,11.1560
20.0474,11.1750
21.2474,11.1750
21.3431,11.1560
21.4242,11.1018
21.4784,11.0207
21.4974,10.9250
Z" /> 
</g>
<g style="fill:none; 
stroke:#02FFEE; stroke-width:1.7000; stroke-opacity:1; 
stroke-linecap:round; stroke-linejoin:round;">
<path d="M18.1474 10.0750
L18.1474 10.3250
" />
<path d="M15.6474 10.0750
L15.6474 10.3250
" />
<path d="M13.1474 10.0750
L13.1474 10.3250
" />
<path d="M10.6474 10.0750
L10.6474 10.3250
" />
<path d="M8.1474 10.0750
L8.1474 10.3250
" />
</g>
<g style="fill:#02FFEE; fill-opacity:0.4000; stroke:none;">
<circle cx="19.2974" cy="28.4000" r="0.6000" /> 
<path style="fill:#02FFEE; fill-opacity:0.4000; stroke:none;fill-rule:evenodd;"
d="M 18.5474,25.6750
18.5284,25.5793
18.4742,25.4982
18.3931,25.4440
18.2974,25.4250
17.0974,25.4250
17.0017,25.4440
16.9206,25.4982
16.8664,25.5793
16.8474,25.6750
16.8474,27.1250
16.8664,27.2207
16.9206,27.3018
17.0017,27.3560
17.0974,27.3750
18.2974,27.3750
18.3931,27.3560
18.4742,27.3018
18.5284,27.2207
18.5474,27.1250
Z" /> 
</g>
<g style="fill:none; 
stroke:#02FFEE; stroke-width:1.7000; stroke-opacity:1; 
stroke-linecap:round; stroke-linejoin:round;">
<path d="M15.1974 26.2750
L15.1974 26.5250
" />
<path d="M12.6974 26.2750
L12.6974 26.5250
" />
<path style="fill:none; 
stroke:#D0D2CD; stroke-width:0.2000; stroke-opacity:1; 
stroke-linecap:round; stroke-linejoin:round;fill:none"
d="M 29.9974,0.0000
-0.0026,0.0000
-0.0026,60.0000
29.9974,60.0000
Z" /> 
</g>
<g style="fill:#FFFFFF; fill-opacity:1.0000; stroke:none;">
<circle cx="16.3974" cy="41.8000" r="0.1500" /> 
<circle cx="21.3974" cy="20.2000" r="0.1500" /> 
<circle cx="16.0974" cy="20.3000" r="0.1500" /> 
<circle cx="10.8974" cy="20.3000" r="0.1500" /> 
<circle cx="13.9974" cy="33.0000" r="0.1500" /> 
<circle cx="14.5974" cy="15.8000" r="0.1500" /> 
<circle cx="11.1974" cy="16.2000" r="0.1500" /> 
<circle cx="12.3974" cy="33.0000" r="0.1500" /> 
</g>
<g style="fill:#000000; fill-opacity:1.0000; stroke:none;">
<circle cx="22.2474" cy="12.2000" r="0.6000" /> 
</g>
<g style="fill:#FFFFFF; fill-opacity:1.0000; stroke:none;">
<circle cx="20.6474" cy="10.2000" r="0.4750" /> 
</g>
<g style="fill:#FFFFFF; fill-opacity:1.0000; stroke:none;">
<circle cx="18.1474" cy="10.2000" r="0.4750" /> 
</g>
<g style="fill:#FFFFFF; fill-opacity:1.0000; stroke:none;">
<circle cx="15.6474" cy="10.2000" r="0.4750" /> 
</g>
<g style="fill:#FFFFFF; fill-opacity:1.0000; stroke:none;">
<circle cx="13.1474" cy="10.2000" r="0.4750" /> 
</g>
<g style="fill:#FFFFFF; fill-opacity:1.0000; stroke:none;">
<circle cx="10.6474" cy="10.2000" r="0.4750" /> 
</g>
<g style="fill:#FFFFFF; fill-opacity:1.0000; stroke:none;">
<circle cx="8.1474" cy="10.2000" r="0.4750" /> 
</g>
<g style="fill:#000000; fill-opacity:1.0000; stroke:none;">
<circle cx="19.2974" cy="28.4000" r="0.6000" /> 
</g>
<g style="fill:#FFFFFF; fill-opacity:1.0000; stroke:none;">
<circle cx="17.6974" cy="26.4000" r="0.4750" /> 
</g>
<g style="fill:#FFFFFF; fill-opacity:1.0000; stroke:none;">
<circle cx="15.1974" cy="26.4000" r="0.4750" /> 
</g>
<g style="fill:#FFFFFF; fill-opacity:1.0000; stroke:none;">
<circle cx="12.6974" cy="26.4000" r="0.4750" /> 
</g> 
</svg>
