%TF.GenerationSoftware,KiCad,Pcbnew,9.0.4*%
%TF.CreationDate,2025-10-04T14:05:03+04:00*%
%TF.ProjectId,handheld1_motion4sim_FO41AFC70E184,68616e64-6865-46c6-9431-5f6d6f74696f,rev?*%
%TF.SameCoordinates,Original*%
%TF.FileFunction,Drillmap*%
%TF.FilePolarity,Positive*%
%FSLAX45Y45*%
G04 Gerber Fmt 4.5, Leading zero omitted, Abs format (unit mm)*
G04 Created by KiCad (PCBNEW 9.0.4) date 2025-10-04 14:05:03*
%MOMM*%
%LPD*%
G01*
G04 APERTURE LIST*
%ADD10C,0.200000*%
%ADD11C,0.120000*%
G04 APERTURE END LIST*
D10*
X13140000Y-6580000D02*
X16140000Y-6580000D01*
X16140000Y-12580000D01*
X13140000Y-12580000D01*
X13140000Y-6580000D01*
D11*
X13855000Y-7740000D02*
X13975000Y-7860000D01*
X13975000Y-7740000D02*
X13855000Y-7860000D01*
X14150000Y-9360000D02*
X14270000Y-9480000D01*
X14270000Y-9360000D02*
X14150000Y-9480000D01*
D10*
X13390777Y-12901484D02*
X13390777Y-12701484D01*
X13390777Y-12701484D02*
X13438396Y-12701484D01*
X13438396Y-12701484D02*
X13466967Y-12711008D01*
X13466967Y-12711008D02*
X13486015Y-12730055D01*
X13486015Y-12730055D02*
X13495539Y-12749103D01*
X13495539Y-12749103D02*
X13505062Y-12787198D01*
X13505062Y-12787198D02*
X13505062Y-12815769D01*
X13505062Y-12815769D02*
X13495539Y-12853865D01*
X13495539Y-12853865D02*
X13486015Y-12872912D01*
X13486015Y-12872912D02*
X13466967Y-12891960D01*
X13466967Y-12891960D02*
X13438396Y-12901484D01*
X13438396Y-12901484D02*
X13390777Y-12901484D01*
X13590777Y-12901484D02*
X13590777Y-12768150D01*
X13590777Y-12806246D02*
X13600301Y-12787198D01*
X13600301Y-12787198D02*
X13609824Y-12777674D01*
X13609824Y-12777674D02*
X13628872Y-12768150D01*
X13628872Y-12768150D02*
X13647920Y-12768150D01*
X13714586Y-12901484D02*
X13714586Y-12768150D01*
X13714586Y-12701484D02*
X13705062Y-12711008D01*
X13705062Y-12711008D02*
X13714586Y-12720531D01*
X13714586Y-12720531D02*
X13724110Y-12711008D01*
X13724110Y-12711008D02*
X13714586Y-12701484D01*
X13714586Y-12701484D02*
X13714586Y-12720531D01*
X13838396Y-12901484D02*
X13819348Y-12891960D01*
X13819348Y-12891960D02*
X13809824Y-12872912D01*
X13809824Y-12872912D02*
X13809824Y-12701484D01*
X13943158Y-12901484D02*
X13924110Y-12891960D01*
X13924110Y-12891960D02*
X13914586Y-12872912D01*
X13914586Y-12872912D02*
X13914586Y-12701484D01*
X14171729Y-12901484D02*
X14171729Y-12701484D01*
X14171729Y-12701484D02*
X14238396Y-12844341D01*
X14238396Y-12844341D02*
X14305062Y-12701484D01*
X14305062Y-12701484D02*
X14305062Y-12901484D01*
X14486015Y-12901484D02*
X14486015Y-12796722D01*
X14486015Y-12796722D02*
X14476491Y-12777674D01*
X14476491Y-12777674D02*
X14457443Y-12768150D01*
X14457443Y-12768150D02*
X14419348Y-12768150D01*
X14419348Y-12768150D02*
X14400301Y-12777674D01*
X14486015Y-12891960D02*
X14466967Y-12901484D01*
X14466967Y-12901484D02*
X14419348Y-12901484D01*
X14419348Y-12901484D02*
X14400301Y-12891960D01*
X14400301Y-12891960D02*
X14390777Y-12872912D01*
X14390777Y-12872912D02*
X14390777Y-12853865D01*
X14390777Y-12853865D02*
X14400301Y-12834817D01*
X14400301Y-12834817D02*
X14419348Y-12825293D01*
X14419348Y-12825293D02*
X14466967Y-12825293D01*
X14466967Y-12825293D02*
X14486015Y-12815769D01*
X14581253Y-12768150D02*
X14581253Y-12968150D01*
X14581253Y-12777674D02*
X14600301Y-12768150D01*
X14600301Y-12768150D02*
X14638396Y-12768150D01*
X14638396Y-12768150D02*
X14657443Y-12777674D01*
X14657443Y-12777674D02*
X14666967Y-12787198D01*
X14666967Y-12787198D02*
X14676491Y-12806246D01*
X14676491Y-12806246D02*
X14676491Y-12863388D01*
X14676491Y-12863388D02*
X14666967Y-12882436D01*
X14666967Y-12882436D02*
X14657443Y-12891960D01*
X14657443Y-12891960D02*
X14638396Y-12901484D01*
X14638396Y-12901484D02*
X14600301Y-12901484D01*
X14600301Y-12901484D02*
X14581253Y-12891960D01*
X14762205Y-12882436D02*
X14771729Y-12891960D01*
X14771729Y-12891960D02*
X14762205Y-12901484D01*
X14762205Y-12901484D02*
X14752682Y-12891960D01*
X14752682Y-12891960D02*
X14762205Y-12882436D01*
X14762205Y-12882436D02*
X14762205Y-12901484D01*
X14762205Y-12777674D02*
X14771729Y-12787198D01*
X14771729Y-12787198D02*
X14762205Y-12796722D01*
X14762205Y-12796722D02*
X14752682Y-12787198D01*
X14752682Y-12787198D02*
X14762205Y-12777674D01*
X14762205Y-12777674D02*
X14762205Y-12796722D01*
D11*
X13010000Y-13170000D02*
X13130000Y-13290000D01*
X13130000Y-13170000D02*
X13010000Y-13290000D01*
D10*
X13495539Y-13321484D02*
X13381253Y-13321484D01*
X13438396Y-13321484D02*
X13438396Y-13121484D01*
X13438396Y-13121484D02*
X13419348Y-13150055D01*
X13419348Y-13150055D02*
X13400301Y-13169103D01*
X13400301Y-13169103D02*
X13381253Y-13178627D01*
X13581253Y-13302436D02*
X13590777Y-13311960D01*
X13590777Y-13311960D02*
X13581253Y-13321484D01*
X13581253Y-13321484D02*
X13571729Y-13311960D01*
X13571729Y-13311960D02*
X13581253Y-13302436D01*
X13581253Y-13302436D02*
X13581253Y-13321484D01*
X13666967Y-13140531D02*
X13676491Y-13131008D01*
X13676491Y-13131008D02*
X13695539Y-13121484D01*
X13695539Y-13121484D02*
X13743158Y-13121484D01*
X13743158Y-13121484D02*
X13762205Y-13131008D01*
X13762205Y-13131008D02*
X13771729Y-13140531D01*
X13771729Y-13140531D02*
X13781253Y-13159579D01*
X13781253Y-13159579D02*
X13781253Y-13178627D01*
X13781253Y-13178627D02*
X13771729Y-13207198D01*
X13771729Y-13207198D02*
X13657443Y-13321484D01*
X13657443Y-13321484D02*
X13781253Y-13321484D01*
X13905062Y-13121484D02*
X13924110Y-13121484D01*
X13924110Y-13121484D02*
X13943158Y-13131008D01*
X13943158Y-13131008D02*
X13952682Y-13140531D01*
X13952682Y-13140531D02*
X13962205Y-13159579D01*
X13962205Y-13159579D02*
X13971729Y-13197674D01*
X13971729Y-13197674D02*
X13971729Y-13245293D01*
X13971729Y-13245293D02*
X13962205Y-13283388D01*
X13962205Y-13283388D02*
X13952682Y-13302436D01*
X13952682Y-13302436D02*
X13943158Y-13311960D01*
X13943158Y-13311960D02*
X13924110Y-13321484D01*
X13924110Y-13321484D02*
X13905062Y-13321484D01*
X13905062Y-13321484D02*
X13886015Y-13311960D01*
X13886015Y-13311960D02*
X13876491Y-13302436D01*
X13876491Y-13302436D02*
X13866967Y-13283388D01*
X13866967Y-13283388D02*
X13857443Y-13245293D01*
X13857443Y-13245293D02*
X13857443Y-13197674D01*
X13857443Y-13197674D02*
X13866967Y-13159579D01*
X13866967Y-13159579D02*
X13876491Y-13140531D01*
X13876491Y-13140531D02*
X13886015Y-13131008D01*
X13886015Y-13131008D02*
X13905062Y-13121484D01*
X14095539Y-13121484D02*
X14114586Y-13121484D01*
X14114586Y-13121484D02*
X14133634Y-13131008D01*
X14133634Y-13131008D02*
X14143158Y-13140531D01*
X14143158Y-13140531D02*
X14152682Y-13159579D01*
X14152682Y-13159579D02*
X14162205Y-13197674D01*
X14162205Y-13197674D02*
X14162205Y-13245293D01*
X14162205Y-13245293D02*
X14152682Y-13283388D01*
X14152682Y-13283388D02*
X14143158Y-13302436D01*
X14143158Y-13302436D02*
X14133634Y-13311960D01*
X14133634Y-13311960D02*
X14114586Y-13321484D01*
X14114586Y-13321484D02*
X14095539Y-13321484D01*
X14095539Y-13321484D02*
X14076491Y-13311960D01*
X14076491Y-13311960D02*
X14066967Y-13302436D01*
X14066967Y-13302436D02*
X14057443Y-13283388D01*
X14057443Y-13283388D02*
X14047920Y-13245293D01*
X14047920Y-13245293D02*
X14047920Y-13197674D01*
X14047920Y-13197674D02*
X14057443Y-13159579D01*
X14057443Y-13159579D02*
X14066967Y-13140531D01*
X14066967Y-13140531D02*
X14076491Y-13131008D01*
X14076491Y-13131008D02*
X14095539Y-13121484D01*
X14247920Y-13321484D02*
X14247920Y-13188150D01*
X14247920Y-13207198D02*
X14257443Y-13197674D01*
X14257443Y-13197674D02*
X14276491Y-13188150D01*
X14276491Y-13188150D02*
X14305063Y-13188150D01*
X14305063Y-13188150D02*
X14324110Y-13197674D01*
X14324110Y-13197674D02*
X14333634Y-13216722D01*
X14333634Y-13216722D02*
X14333634Y-13321484D01*
X14333634Y-13216722D02*
X14343158Y-13197674D01*
X14343158Y-13197674D02*
X14362205Y-13188150D01*
X14362205Y-13188150D02*
X14390777Y-13188150D01*
X14390777Y-13188150D02*
X14409824Y-13197674D01*
X14409824Y-13197674D02*
X14419348Y-13216722D01*
X14419348Y-13216722D02*
X14419348Y-13321484D01*
X14514586Y-13321484D02*
X14514586Y-13188150D01*
X14514586Y-13207198D02*
X14524110Y-13197674D01*
X14524110Y-13197674D02*
X14543158Y-13188150D01*
X14543158Y-13188150D02*
X14571729Y-13188150D01*
X14571729Y-13188150D02*
X14590777Y-13197674D01*
X14590777Y-13197674D02*
X14600301Y-13216722D01*
X14600301Y-13216722D02*
X14600301Y-13321484D01*
X14600301Y-13216722D02*
X14609824Y-13197674D01*
X14609824Y-13197674D02*
X14628872Y-13188150D01*
X14628872Y-13188150D02*
X14657443Y-13188150D01*
X14657443Y-13188150D02*
X14676491Y-13197674D01*
X14676491Y-13197674D02*
X14686015Y-13216722D01*
X14686015Y-13216722D02*
X14686015Y-13321484D01*
X15076491Y-13111960D02*
X14905063Y-13369103D01*
X15333634Y-13121484D02*
X15352682Y-13121484D01*
X15352682Y-13121484D02*
X15371729Y-13131008D01*
X15371729Y-13131008D02*
X15381253Y-13140531D01*
X15381253Y-13140531D02*
X15390777Y-13159579D01*
X15390777Y-13159579D02*
X15400301Y-13197674D01*
X15400301Y-13197674D02*
X15400301Y-13245293D01*
X15400301Y-13245293D02*
X15390777Y-13283388D01*
X15390777Y-13283388D02*
X15381253Y-13302436D01*
X15381253Y-13302436D02*
X15371729Y-13311960D01*
X15371729Y-13311960D02*
X15352682Y-13321484D01*
X15352682Y-13321484D02*
X15333634Y-13321484D01*
X15333634Y-13321484D02*
X15314586Y-13311960D01*
X15314586Y-13311960D02*
X15305063Y-13302436D01*
X15305063Y-13302436D02*
X15295539Y-13283388D01*
X15295539Y-13283388D02*
X15286015Y-13245293D01*
X15286015Y-13245293D02*
X15286015Y-13197674D01*
X15286015Y-13197674D02*
X15295539Y-13159579D01*
X15295539Y-13159579D02*
X15305063Y-13140531D01*
X15305063Y-13140531D02*
X15314586Y-13131008D01*
X15314586Y-13131008D02*
X15333634Y-13121484D01*
X15486015Y-13302436D02*
X15495539Y-13311960D01*
X15495539Y-13311960D02*
X15486015Y-13321484D01*
X15486015Y-13321484D02*
X15476491Y-13311960D01*
X15476491Y-13311960D02*
X15486015Y-13302436D01*
X15486015Y-13302436D02*
X15486015Y-13321484D01*
X15619348Y-13121484D02*
X15638396Y-13121484D01*
X15638396Y-13121484D02*
X15657444Y-13131008D01*
X15657444Y-13131008D02*
X15666967Y-13140531D01*
X15666967Y-13140531D02*
X15676491Y-13159579D01*
X15676491Y-13159579D02*
X15686015Y-13197674D01*
X15686015Y-13197674D02*
X15686015Y-13245293D01*
X15686015Y-13245293D02*
X15676491Y-13283388D01*
X15676491Y-13283388D02*
X15666967Y-13302436D01*
X15666967Y-13302436D02*
X15657444Y-13311960D01*
X15657444Y-13311960D02*
X15638396Y-13321484D01*
X15638396Y-13321484D02*
X15619348Y-13321484D01*
X15619348Y-13321484D02*
X15600301Y-13311960D01*
X15600301Y-13311960D02*
X15590777Y-13302436D01*
X15590777Y-13302436D02*
X15581253Y-13283388D01*
X15581253Y-13283388D02*
X15571729Y-13245293D01*
X15571729Y-13245293D02*
X15571729Y-13197674D01*
X15571729Y-13197674D02*
X15581253Y-13159579D01*
X15581253Y-13159579D02*
X15590777Y-13140531D01*
X15590777Y-13140531D02*
X15600301Y-13131008D01*
X15600301Y-13131008D02*
X15619348Y-13121484D01*
X15857444Y-13188150D02*
X15857444Y-13321484D01*
X15809825Y-13111960D02*
X15762206Y-13254817D01*
X15762206Y-13254817D02*
X15886015Y-13254817D01*
X15943158Y-13121484D02*
X16076491Y-13121484D01*
X16076491Y-13121484D02*
X15990777Y-13321484D01*
X16143158Y-13140531D02*
X16152682Y-13131008D01*
X16152682Y-13131008D02*
X16171729Y-13121484D01*
X16171729Y-13121484D02*
X16219348Y-13121484D01*
X16219348Y-13121484D02*
X16238396Y-13131008D01*
X16238396Y-13131008D02*
X16247920Y-13140531D01*
X16247920Y-13140531D02*
X16257444Y-13159579D01*
X16257444Y-13159579D02*
X16257444Y-13178627D01*
X16257444Y-13178627D02*
X16247920Y-13207198D01*
X16247920Y-13207198D02*
X16133634Y-13321484D01*
X16133634Y-13321484D02*
X16257444Y-13321484D01*
X16333634Y-13121484D02*
X16333634Y-13159579D01*
X16409825Y-13121484D02*
X16409825Y-13159579D01*
X16705063Y-13397674D02*
X16695539Y-13388150D01*
X16695539Y-13388150D02*
X16676491Y-13359579D01*
X16676491Y-13359579D02*
X16666968Y-13340531D01*
X16666968Y-13340531D02*
X16657444Y-13311960D01*
X16657444Y-13311960D02*
X16647920Y-13264341D01*
X16647920Y-13264341D02*
X16647920Y-13226246D01*
X16647920Y-13226246D02*
X16657444Y-13178627D01*
X16657444Y-13178627D02*
X16666968Y-13150055D01*
X16666968Y-13150055D02*
X16676491Y-13131008D01*
X16676491Y-13131008D02*
X16695539Y-13102436D01*
X16695539Y-13102436D02*
X16705063Y-13092912D01*
X16771729Y-13140531D02*
X16781253Y-13131008D01*
X16781253Y-13131008D02*
X16800301Y-13121484D01*
X16800301Y-13121484D02*
X16847920Y-13121484D01*
X16847920Y-13121484D02*
X16866968Y-13131008D01*
X16866968Y-13131008D02*
X16876491Y-13140531D01*
X16876491Y-13140531D02*
X16886015Y-13159579D01*
X16886015Y-13159579D02*
X16886015Y-13178627D01*
X16886015Y-13178627D02*
X16876491Y-13207198D01*
X16876491Y-13207198D02*
X16762206Y-13321484D01*
X16762206Y-13321484D02*
X16886015Y-13321484D01*
X17124111Y-13321484D02*
X17124111Y-13121484D01*
X17209825Y-13321484D02*
X17209825Y-13216722D01*
X17209825Y-13216722D02*
X17200301Y-13197674D01*
X17200301Y-13197674D02*
X17181253Y-13188150D01*
X17181253Y-13188150D02*
X17152682Y-13188150D01*
X17152682Y-13188150D02*
X17133634Y-13197674D01*
X17133634Y-13197674D02*
X17124111Y-13207198D01*
X17333634Y-13321484D02*
X17314587Y-13311960D01*
X17314587Y-13311960D02*
X17305063Y-13302436D01*
X17305063Y-13302436D02*
X17295539Y-13283388D01*
X17295539Y-13283388D02*
X17295539Y-13226246D01*
X17295539Y-13226246D02*
X17305063Y-13207198D01*
X17305063Y-13207198D02*
X17314587Y-13197674D01*
X17314587Y-13197674D02*
X17333634Y-13188150D01*
X17333634Y-13188150D02*
X17362206Y-13188150D01*
X17362206Y-13188150D02*
X17381253Y-13197674D01*
X17381253Y-13197674D02*
X17390777Y-13207198D01*
X17390777Y-13207198D02*
X17400301Y-13226246D01*
X17400301Y-13226246D02*
X17400301Y-13283388D01*
X17400301Y-13283388D02*
X17390777Y-13302436D01*
X17390777Y-13302436D02*
X17381253Y-13311960D01*
X17381253Y-13311960D02*
X17362206Y-13321484D01*
X17362206Y-13321484D02*
X17333634Y-13321484D01*
X17514587Y-13321484D02*
X17495539Y-13311960D01*
X17495539Y-13311960D02*
X17486015Y-13292912D01*
X17486015Y-13292912D02*
X17486015Y-13121484D01*
X17666968Y-13311960D02*
X17647920Y-13321484D01*
X17647920Y-13321484D02*
X17609825Y-13321484D01*
X17609825Y-13321484D02*
X17590777Y-13311960D01*
X17590777Y-13311960D02*
X17581253Y-13292912D01*
X17581253Y-13292912D02*
X17581253Y-13216722D01*
X17581253Y-13216722D02*
X17590777Y-13197674D01*
X17590777Y-13197674D02*
X17609825Y-13188150D01*
X17609825Y-13188150D02*
X17647920Y-13188150D01*
X17647920Y-13188150D02*
X17666968Y-13197674D01*
X17666968Y-13197674D02*
X17676492Y-13216722D01*
X17676492Y-13216722D02*
X17676492Y-13235769D01*
X17676492Y-13235769D02*
X17581253Y-13254817D01*
X17752682Y-13311960D02*
X17771730Y-13321484D01*
X17771730Y-13321484D02*
X17809825Y-13321484D01*
X17809825Y-13321484D02*
X17828873Y-13311960D01*
X17828873Y-13311960D02*
X17838396Y-13292912D01*
X17838396Y-13292912D02*
X17838396Y-13283388D01*
X17838396Y-13283388D02*
X17828873Y-13264341D01*
X17828873Y-13264341D02*
X17809825Y-13254817D01*
X17809825Y-13254817D02*
X17781253Y-13254817D01*
X17781253Y-13254817D02*
X17762206Y-13245293D01*
X17762206Y-13245293D02*
X17752682Y-13226246D01*
X17752682Y-13226246D02*
X17752682Y-13216722D01*
X17752682Y-13216722D02*
X17762206Y-13197674D01*
X17762206Y-13197674D02*
X17781253Y-13188150D01*
X17781253Y-13188150D02*
X17809825Y-13188150D01*
X17809825Y-13188150D02*
X17828873Y-13197674D01*
X17905063Y-13397674D02*
X17914587Y-13388150D01*
X17914587Y-13388150D02*
X17933634Y-13359579D01*
X17933634Y-13359579D02*
X17943158Y-13340531D01*
X17943158Y-13340531D02*
X17952682Y-13311960D01*
X17952682Y-13311960D02*
X17962206Y-13264341D01*
X17962206Y-13264341D02*
X17962206Y-13226246D01*
X17962206Y-13226246D02*
X17952682Y-13178627D01*
X17952682Y-13178627D02*
X17943158Y-13150055D01*
X17943158Y-13150055D02*
X17933634Y-13131008D01*
X17933634Y-13131008D02*
X17914587Y-13102436D01*
X17914587Y-13102436D02*
X17905063Y-13092912D01*
X18266968Y-13397674D02*
X18257444Y-13388150D01*
X18257444Y-13388150D02*
X18238396Y-13359579D01*
X18238396Y-13359579D02*
X18228873Y-13340531D01*
X18228873Y-13340531D02*
X18219349Y-13311960D01*
X18219349Y-13311960D02*
X18209825Y-13264341D01*
X18209825Y-13264341D02*
X18209825Y-13226246D01*
X18209825Y-13226246D02*
X18219349Y-13178627D01*
X18219349Y-13178627D02*
X18228873Y-13150055D01*
X18228873Y-13150055D02*
X18238396Y-13131008D01*
X18238396Y-13131008D02*
X18257444Y-13102436D01*
X18257444Y-13102436D02*
X18266968Y-13092912D01*
X18343158Y-13188150D02*
X18343158Y-13321484D01*
X18343158Y-13207198D02*
X18352682Y-13197674D01*
X18352682Y-13197674D02*
X18371730Y-13188150D01*
X18371730Y-13188150D02*
X18400301Y-13188150D01*
X18400301Y-13188150D02*
X18419349Y-13197674D01*
X18419349Y-13197674D02*
X18428873Y-13216722D01*
X18428873Y-13216722D02*
X18428873Y-13321484D01*
X18552682Y-13321484D02*
X18533634Y-13311960D01*
X18533634Y-13311960D02*
X18524111Y-13302436D01*
X18524111Y-13302436D02*
X18514587Y-13283388D01*
X18514587Y-13283388D02*
X18514587Y-13226246D01*
X18514587Y-13226246D02*
X18524111Y-13207198D01*
X18524111Y-13207198D02*
X18533634Y-13197674D01*
X18533634Y-13197674D02*
X18552682Y-13188150D01*
X18552682Y-13188150D02*
X18581254Y-13188150D01*
X18581254Y-13188150D02*
X18600301Y-13197674D01*
X18600301Y-13197674D02*
X18609825Y-13207198D01*
X18609825Y-13207198D02*
X18619349Y-13226246D01*
X18619349Y-13226246D02*
X18619349Y-13283388D01*
X18619349Y-13283388D02*
X18609825Y-13302436D01*
X18609825Y-13302436D02*
X18600301Y-13311960D01*
X18600301Y-13311960D02*
X18581254Y-13321484D01*
X18581254Y-13321484D02*
X18552682Y-13321484D01*
X18676492Y-13188150D02*
X18752682Y-13188150D01*
X18705063Y-13121484D02*
X18705063Y-13292912D01*
X18705063Y-13292912D02*
X18714587Y-13311960D01*
X18714587Y-13311960D02*
X18733634Y-13321484D01*
X18733634Y-13321484D02*
X18752682Y-13321484D01*
X18971730Y-13188150D02*
X18971730Y-13388150D01*
X18971730Y-13197674D02*
X18990777Y-13188150D01*
X18990777Y-13188150D02*
X19028873Y-13188150D01*
X19028873Y-13188150D02*
X19047920Y-13197674D01*
X19047920Y-13197674D02*
X19057444Y-13207198D01*
X19057444Y-13207198D02*
X19066968Y-13226246D01*
X19066968Y-13226246D02*
X19066968Y-13283388D01*
X19066968Y-13283388D02*
X19057444Y-13302436D01*
X19057444Y-13302436D02*
X19047920Y-13311960D01*
X19047920Y-13311960D02*
X19028873Y-13321484D01*
X19028873Y-13321484D02*
X18990777Y-13321484D01*
X18990777Y-13321484D02*
X18971730Y-13311960D01*
X19181254Y-13321484D02*
X19162206Y-13311960D01*
X19162206Y-13311960D02*
X19152682Y-13292912D01*
X19152682Y-13292912D02*
X19152682Y-13121484D01*
X19343158Y-13321484D02*
X19343158Y-13216722D01*
X19343158Y-13216722D02*
X19333635Y-13197674D01*
X19333635Y-13197674D02*
X19314587Y-13188150D01*
X19314587Y-13188150D02*
X19276492Y-13188150D01*
X19276492Y-13188150D02*
X19257444Y-13197674D01*
X19343158Y-13311960D02*
X19324111Y-13321484D01*
X19324111Y-13321484D02*
X19276492Y-13321484D01*
X19276492Y-13321484D02*
X19257444Y-13311960D01*
X19257444Y-13311960D02*
X19247920Y-13292912D01*
X19247920Y-13292912D02*
X19247920Y-13273865D01*
X19247920Y-13273865D02*
X19257444Y-13254817D01*
X19257444Y-13254817D02*
X19276492Y-13245293D01*
X19276492Y-13245293D02*
X19324111Y-13245293D01*
X19324111Y-13245293D02*
X19343158Y-13235769D01*
X19409825Y-13188150D02*
X19486015Y-13188150D01*
X19438396Y-13121484D02*
X19438396Y-13292912D01*
X19438396Y-13292912D02*
X19447920Y-13311960D01*
X19447920Y-13311960D02*
X19466968Y-13321484D01*
X19466968Y-13321484D02*
X19486015Y-13321484D01*
X19628873Y-13311960D02*
X19609825Y-13321484D01*
X19609825Y-13321484D02*
X19571730Y-13321484D01*
X19571730Y-13321484D02*
X19552682Y-13311960D01*
X19552682Y-13311960D02*
X19543158Y-13292912D01*
X19543158Y-13292912D02*
X19543158Y-13216722D01*
X19543158Y-13216722D02*
X19552682Y-13197674D01*
X19552682Y-13197674D02*
X19571730Y-13188150D01*
X19571730Y-13188150D02*
X19609825Y-13188150D01*
X19609825Y-13188150D02*
X19628873Y-13197674D01*
X19628873Y-13197674D02*
X19638396Y-13216722D01*
X19638396Y-13216722D02*
X19638396Y-13235769D01*
X19638396Y-13235769D02*
X19543158Y-13254817D01*
X19809825Y-13321484D02*
X19809825Y-13121484D01*
X19809825Y-13311960D02*
X19790777Y-13321484D01*
X19790777Y-13321484D02*
X19752682Y-13321484D01*
X19752682Y-13321484D02*
X19733635Y-13311960D01*
X19733635Y-13311960D02*
X19724111Y-13302436D01*
X19724111Y-13302436D02*
X19714587Y-13283388D01*
X19714587Y-13283388D02*
X19714587Y-13226246D01*
X19714587Y-13226246D02*
X19724111Y-13207198D01*
X19724111Y-13207198D02*
X19733635Y-13197674D01*
X19733635Y-13197674D02*
X19752682Y-13188150D01*
X19752682Y-13188150D02*
X19790777Y-13188150D01*
X19790777Y-13188150D02*
X19809825Y-13197674D01*
X19886016Y-13397674D02*
X19895539Y-13388150D01*
X19895539Y-13388150D02*
X19914587Y-13359579D01*
X19914587Y-13359579D02*
X19924111Y-13340531D01*
X19924111Y-13340531D02*
X19933635Y-13311960D01*
X19933635Y-13311960D02*
X19943158Y-13264341D01*
X19943158Y-13264341D02*
X19943158Y-13226246D01*
X19943158Y-13226246D02*
X19933635Y-13178627D01*
X19933635Y-13178627D02*
X19924111Y-13150055D01*
X19924111Y-13150055D02*
X19914587Y-13131008D01*
X19914587Y-13131008D02*
X19895539Y-13102436D01*
X19895539Y-13102436D02*
X19886016Y-13092912D01*
M02*
